<svg width="157" height="36" viewBox="0 0 157 36" fill="none" xmlns="http://www.w3.org/2000/svg">
<g clip-path="url(#clip0_6_260)">
<path d="M45.1367 16.5593V14.4846H53.6741V11.7293H50.063C49.8274 11.7293 49.6191 11.6524 49.4438 11.4878C49.2684 11.3286 49.1808 11.0981 49.1808 10.7907V5.98816C49.1808 5.48321 49.0383 5.15938 48.7533 5.02765C48.4684 4.89043 48.3095 4.81908 48.2766 4.80262V3.91895H61.6362V5.99365H52.1946V9.63811H61.8664V11.7348H56.9182V14.4901H65.4556V16.5648H45.1532L45.1367 16.5593ZM61.6033 18.8645C61.6033 18.8645 61.5759 19.1005 61.5266 19.5232C61.4773 19.9458 61.4499 20.3574 61.4499 20.7636V24.5837L61.2252 26.6309H58.5237V20.9392H49.0547V18.8645H61.6033Z" fill="#231F20"/>
<path d="M67.9105 19.7153V17.5912H76.1959V13.2881H72.4313C72.1957 13.2881 71.9929 13.2058 71.823 13.0466C71.6532 12.8875 71.571 12.6569 71.571 12.3496V6.25169C71.571 5.74674 71.4285 5.42291 71.1436 5.2802C70.8586 5.1375 70.6997 5.06614 70.6668 5.06614V4.15503H84.3004V6.25169H74.552V11.1585H84.5251V13.2826H79.4234V17.5857H87.7033V19.7098H67.905L67.9105 19.7153Z" fill="#231F20"/>
<path d="M101.704 4.67093C101.704 4.70387 101.677 4.91792 101.616 5.31859C101.556 5.71378 101.529 6.08151 101.529 6.41632V14.0785C101.529 14.4133 101.441 14.6603 101.277 14.8139C101.107 14.9676 100.882 15.039 100.597 15.039H92.5693C92.3172 15.039 92.1035 14.9621 91.9281 14.8139C91.7528 14.6603 91.6651 14.4188 91.6651 14.0785V7.17375C91.6651 6.63587 91.4788 6.27911 91.1117 6.09798C90.739 5.92234 90.5418 5.82355 90.5034 5.80708L90.9582 4.92341L94.6461 5.30213C94.6461 5.30213 94.6242 5.49423 94.5803 5.83453C94.5365 6.17482 94.5201 6.53158 94.5201 6.92128V8.16171H98.7121V6.46572C98.7121 5.97723 98.5422 5.63145 98.197 5.42837C97.8517 5.22529 97.66 5.12649 97.6271 5.12649L98.0545 4.26477L101.715 4.67093H101.704ZM98.6956 10.209H94.5036V12.9643H98.6956V10.209ZM107.436 17.926C107.436 17.926 107.419 18.151 107.386 18.5462C107.354 18.9414 107.337 19.3695 107.337 19.8251V24.5563L107.113 26.6035H104.537V20.0282H95.1448V17.9315H107.441L107.436 17.926ZM107.534 10.4121V16.455H104.833V5.88392C104.833 5.4119 104.707 5.00574 104.455 4.67093C104.203 4.33064 103.89 4.05621 103.523 3.83666L102.263 3.10118L102.767 2.34375L108.17 3.05178C108.154 3.08472 108.044 3.39208 107.841 3.97388C107.639 4.55567 107.54 5.18138 107.54 5.85648V8.26051H111.354V10.4121H107.54H107.534Z" fill="#231F20"/>
<path d="M125.059 14.9512V17.1796H129.601C129.601 17.2125 129.58 17.4156 129.525 17.7888C129.475 18.1621 129.448 18.5408 129.448 18.925V22.7176H120.763V24.463H129.854V26.5103H118.565C118.297 26.5103 118.083 26.4225 117.919 26.2468C117.76 26.0712 117.678 25.8187 117.678 25.5004V22.7945C117.678 22.3224 117.557 22.0041 117.31 21.834C117.064 21.6638 116.927 21.5705 116.894 21.554V20.7966H126.336V19.15H117.168V17.1796H121.765V14.9512H113.255V12.8765H133.558V14.9512H125.048H125.059ZM129.832 3.57324C129.832 3.60617 129.81 3.92452 129.766 4.52278C129.722 5.12104 129.706 5.47231 129.706 5.57111V10.0718C129.706 10.3407 129.623 10.5713 129.453 10.7579C129.284 10.9445 129.059 11.0378 128.774 11.0378H118.269C118.001 11.0378 117.787 10.961 117.639 10.7963C117.486 10.6371 117.414 10.3956 117.414 10.0773V5.70284C117.414 5.21435 117.283 4.87954 117.025 4.7039C116.762 4.52827 116.614 4.44045 116.582 4.44045V3.57873H129.837L129.832 3.57324ZM126.829 5.62051H120.237V9.01249H126.829V5.62051Z" fill="#231F20"/>
<path d="M153.186 11.9544V18.0468L152.962 20.5496H150.512V16.477C148.83 16.746 147.016 16.9381 145.071 17.0478C143.125 17.1576 141.372 17.2125 139.805 17.2125H136.095V14.9347H140.057V11.7238C140.057 11.1366 139.909 10.7578 139.613 10.5987C139.317 10.4395 139.153 10.3517 139.12 10.3352L139.525 9.47351L143.01 9.75343C143.01 9.75343 142.967 9.99493 142.934 10.423C142.901 10.8512 142.884 11.2134 142.884 11.4988V14.9402C144.112 14.9073 145.383 14.8469 146.698 14.7646C148.013 14.6822 149.285 14.556 150.512 14.3858V5.88942C150.512 5.4174 150.392 5.01124 150.145 4.66545C149.898 4.31967 149.592 4.03975 149.224 3.8202L148.013 3.11217L148.518 2.35474L153.822 3.06277C153.805 3.0957 153.696 3.40307 153.493 3.98486C153.29 4.56666 153.192 5.19236 153.192 5.86747V9.8138H157.006V11.9653H153.192L153.186 11.9544ZM148.342 5.30214C148.326 6.3834 148.211 7.70067 148.002 9.25945C147.794 10.8182 147.52 12.1575 147.18 13.2662H144.654C144.841 12.3221 144.978 11.2793 145.071 10.1321C145.164 8.98502 145.208 7.94766 145.208 7.02008H137.328V4.94538H148.008C148.107 4.94538 148.189 4.97831 148.249 5.04966C148.309 5.11552 148.337 5.20334 148.337 5.30214H148.342ZM143.268 25.9943C143.032 25.9943 142.819 25.9175 142.627 25.7693C142.435 25.6156 142.336 25.3796 142.336 25.0612V21.318C142.336 20.7252 142.156 20.3465 141.794 20.1654C141.432 19.9897 141.235 19.8909 141.202 19.8745L141.608 18.9634L145.345 19.2927C145.345 19.3256 145.317 19.5177 145.268 19.8635C145.219 20.2093 145.191 20.577 145.191 20.9612V23.8922H153.981V25.9943H143.273H143.268Z" fill="#231F20"/>
<path d="M23.3876 28.8374H12.2473L15.4639 12.5361H20.171L23.3876 28.8374Z" fill="#9C7DB9"/>
<path d="M28.2864 11.7182V28.6067H35.6292V4.35791L28.2864 11.7127V11.7182Z" fill="#6CC071"/>
<path d="M0 4.35791V28.6012H7.34285V11.7127L0 4.35791Z" fill="#F78E1E"/>
<path d="M1.07959 0C1.07959 0 14.5762 15.3462 35.0156 0H1.07959Z" fill="#00BCE4"/>
<path d="M48.3148 30.2478H50.0245C50.9286 30.2478 51.6026 30.4893 52.0575 30.9723C52.5123 31.4553 52.737 32.1798 52.737 33.1458C52.737 34.0514 52.5232 34.7375 52.0903 35.1931C51.6629 35.6486 51.0163 35.8792 50.167 35.8792H48.3093V30.2478H48.3148ZM49.0546 35.248H50.1779C50.8136 35.248 51.2739 35.0723 51.5698 34.7156C51.8657 34.3588 52.0081 33.8044 52.0081 33.0415C52.0081 32.3115 51.8492 31.7736 51.5204 31.4169C51.1917 31.0601 50.6985 30.8845 50.03 30.8845H49.06V35.248H49.0546Z" fill="#808285"/>
<path d="M54.118 35.4403C53.7947 35.067 53.6357 34.5566 53.6357 33.898C53.6357 33.2393 53.7947 32.7508 54.118 32.3886C54.4413 32.0263 54.8851 31.8452 55.4495 31.8452C56.014 31.8452 56.4633 32.0263 56.7811 32.3886C57.1044 32.7508 57.2633 33.2558 57.2633 33.898C57.2633 34.5401 57.1044 35.067 56.7811 35.4403C56.4578 35.8135 56.014 36.0001 55.4495 36.0001C54.8851 36.0001 54.4413 35.8135 54.118 35.4403ZM56.2441 35.0561C56.4304 34.7816 56.529 34.3974 56.529 33.9035C56.529 33.4095 56.4359 33.0417 56.2441 32.7728C56.0578 32.5039 55.7893 32.3721 55.4495 32.3721C55.1098 32.3721 54.8413 32.5039 54.655 32.7728C54.4687 33.0417 54.37 33.415 54.37 33.9035C54.37 34.3919 54.4632 34.7871 54.655 35.0561C54.8413 35.3305 55.1098 35.4677 55.4495 35.4677C55.7893 35.4677 56.0578 35.3305 56.2441 35.0561Z" fill="#808285"/>
<path d="M59.0879 35.8848H58.3975V30.2534H59.0879V33.5905L60.562 31.9604H61.4387L59.8222 33.618L61.7017 35.8848H60.7702L59.0879 33.7222V35.8848Z" fill="#808285"/>
<path d="M63.817 35.9999C63.3293 35.9999 62.9457 35.8133 62.6662 35.4401C62.3868 35.0668 62.2498 34.5564 62.2498 33.8977C62.2498 33.2391 62.3922 32.7506 62.6772 32.3884C62.9621 32.0261 63.3512 31.845 63.8498 31.845C64.3485 31.845 64.743 32.0261 65.028 32.3939H65.0335V30.2478H65.7239V35.8792H65.0335V35.3632L64.9787 35.4401C64.6937 35.8078 64.3101 35.9944 63.817 35.9944V35.9999ZM64.0088 32.3719C63.6854 32.3719 63.4334 32.5036 63.2525 32.7726C63.0717 33.0415 62.984 33.4147 62.984 33.9032C62.984 34.3917 63.0717 34.7869 63.2525 35.0613C63.4334 35.3358 63.6854 35.473 64.0088 35.473C64.3321 35.473 64.5841 35.3358 64.765 35.0668C64.9458 34.7979 65.0335 34.4137 65.0335 33.9252C65.0335 33.4367 64.9458 33.0525 64.765 32.7836C64.5841 32.5146 64.3321 32.3829 64.0088 32.3829V32.3719Z" fill="#808285"/>
<path d="M67.2527 35.4403C66.9294 35.067 66.7705 34.5566 66.7705 33.898C66.7705 33.2393 66.9294 32.7508 67.2527 32.3886C67.576 32.0263 68.0199 31.8452 68.5843 31.8452C69.1487 31.8452 69.5981 32.0263 69.9159 32.3886C70.2392 32.7508 70.3981 33.2558 70.3981 33.898C70.3981 34.5401 70.2392 35.067 69.9159 35.4403C69.5926 35.8135 69.1487 36.0001 68.5843 36.0001C68.0199 36.0001 67.576 35.8135 67.2527 35.4403ZM69.3789 35.0561C69.5652 34.7816 69.6638 34.3974 69.6638 33.9035C69.6638 33.4095 69.5707 33.0417 69.3789 32.7728C69.1926 32.5039 68.924 32.3721 68.5843 32.3721C68.2446 32.3721 67.9761 32.5039 67.7897 32.7728C67.6034 33.0417 67.5048 33.415 67.5048 33.9035C67.5048 34.3919 67.5979 34.7871 67.7897 35.0561C67.9761 35.3305 68.2446 35.4677 68.5843 35.4677C68.924 35.4677 69.1926 35.3305 69.3789 35.0561Z" fill="#808285"/>
<path d="M74.8313 35.8848H74.0916V30.2534H75.2861L76.9794 34.9682L78.6233 30.2534H79.8179V35.8848H79.0781V30.8352L77.3465 35.8848H76.6068L74.8258 30.8407V35.8848H74.8313Z" fill="#808285"/>
<path d="M81.7302 34.3095C81.7302 34.7101 81.8015 35.001 81.9494 35.1822C82.0919 35.3633 82.3275 35.4511 82.6454 35.4511C83.0344 35.4511 83.3084 35.3523 83.4728 35.1492C83.6372 34.9461 83.7139 34.6223 83.692 34.1777V31.9548H84.3824V35.8792H83.7413V35.3688L83.6646 35.4731C83.3742 35.8243 82.9906 35.9945 82.5138 35.9945C82.0097 35.9945 81.6371 35.8518 81.396 35.5718C81.1549 35.2919 81.0398 34.8528 81.0398 34.2546V31.9548H81.7302V34.3095Z" fill="#808285"/>
<path d="M87.7032 33.0088C87.7032 32.8112 87.6375 32.6575 87.5005 32.5423C87.3635 32.427 87.1826 32.3721 86.9415 32.3721C86.7004 32.3721 86.5086 32.4215 86.3716 32.5148C86.2346 32.6081 86.1689 32.7399 86.1689 32.91C86.1689 33.0362 86.2072 33.135 86.2785 33.2174C86.3497 33.2997 86.4593 33.3601 86.6127 33.404L87.3799 33.618C87.769 33.7278 88.0484 33.8705 88.2183 34.0462C88.3882 34.2163 88.4704 34.4468 88.4704 34.7268C88.4704 35.1219 88.3334 35.4293 88.0539 35.6543C87.7799 35.8794 87.3963 35.9946 86.9087 35.9946C86.421 35.9946 86.01 35.8849 85.7469 35.6653C85.4784 35.4458 85.3469 35.1219 85.3469 34.7048H86.0593C86.0593 34.9463 86.136 35.1329 86.284 35.2646C86.4374 35.3964 86.6456 35.4677 86.9087 35.4677C87.1717 35.4677 87.4018 35.4073 87.5553 35.2921C87.7087 35.1768 87.7854 35.0122 87.7854 34.7981C87.7854 34.6719 87.7361 34.5676 87.6429 34.4853C87.5498 34.3974 87.4018 34.3261 87.2046 34.2712L86.4374 34.0516C86.0922 33.9529 85.8401 33.8211 85.6867 33.6565C85.5387 33.4918 85.462 33.2668 85.462 32.9869C85.462 32.6301 85.5935 32.3502 85.8511 32.1471C86.1086 31.944 86.4703 31.8452 86.9306 31.8452C87.3909 31.8452 87.7471 31.9495 88.0101 32.1581C88.2731 32.3666 88.3991 32.652 88.3991 33.0143H87.6868L87.7032 33.0088Z" fill="#808285"/>
<path d="M91.0405 36C90.487 36 90.0541 35.8189 89.7418 35.4621C89.4294 35.1053 89.2705 34.6114 89.2705 33.9802C89.2705 33.3106 89.4294 32.7891 89.7418 32.4104C90.0541 32.0317 90.487 31.8396 91.0405 31.8396C91.5939 31.8396 91.9775 32.0043 92.2624 32.3336C92.5419 32.6629 92.6844 33.1404 92.6844 33.7716V34.0351H89.9993C90.0158 34.4851 90.0979 34.8254 90.2459 35.0559C90.4103 35.3194 90.6733 35.4511 91.0295 35.4511C91.2816 35.4511 91.4898 35.3798 91.6487 35.2316C91.8076 35.0834 91.9063 34.8803 91.9391 34.6223H92.6515C92.5967 35.0669 92.4323 35.4072 92.1583 35.6432C91.8843 35.8792 91.5117 35.9945 91.0459 35.9945L91.0405 36ZM91.9665 33.4917C91.9446 33.1349 91.8734 32.8715 91.7528 32.7013C91.6049 32.4873 91.3473 32.383 90.9802 32.383C90.6624 32.383 90.4213 32.5092 90.2459 32.7562C90.1144 32.9428 90.0322 33.1898 90.0048 33.4917H91.9665Z" fill="#808285"/>
<path d="M94.2844 34.3095C94.2844 34.7101 94.3557 35.001 94.5036 35.1822C94.6461 35.3633 94.8817 35.4511 95.1996 35.4511C95.5831 35.4511 95.8626 35.3523 96.027 35.1492C96.1914 34.9461 96.2681 34.6223 96.2462 34.1777V31.9548H96.9366V35.8792H96.2955V35.3688L96.2188 35.4731C95.9284 35.8243 95.5448 35.9945 95.068 35.9945C94.5639 35.9945 94.1913 35.8518 93.9502 35.5718C93.7091 35.2919 93.594 34.8528 93.594 34.2546V31.9548H94.2844V34.3095Z" fill="#808285"/>
<path d="M98.1038 31.9604H98.7942V32.4269L98.86 32.3446C99.123 32.0097 99.4792 31.8396 99.9285 31.8396C100.318 31.8396 100.635 31.9658 100.887 32.2183C100.992 32.3171 101.068 32.4324 101.129 32.5586L101.277 32.3555C101.556 32.0097 101.918 31.8396 102.362 31.8396C102.833 31.8396 103.178 31.9713 103.397 32.2293C103.622 32.4927 103.731 32.8989 103.731 33.4533V35.8738H103.041V33.4313C103.041 33.0691 102.975 32.8111 102.844 32.6464C102.712 32.4818 102.504 32.3994 102.214 32.3994C101.879 32.3994 101.638 32.4982 101.49 32.6958C101.342 32.8934 101.266 33.2118 101.266 33.6509V35.8738H100.575V33.4313C100.575 33.0691 100.509 32.8056 100.378 32.6409C100.246 32.4763 100.038 32.394 99.7477 32.394C99.4134 32.394 99.1723 32.4927 99.0244 32.6903C98.8764 32.8879 98.7997 33.2063 98.7997 33.6454V35.8683H98.1092V31.9439L98.1038 31.9604Z" fill="#808285"/>
</g>
<defs>
<clipPath id="clip0_6_260">
<rect width="157" height="36" fill="white"/>
</clipPath>
</defs>
</svg>
