<svg width="224" height="51" viewBox="0 0 224 51" fill="none" xmlns="http://www.w3.org/2000/svg">
<g clip-path="url(#clip0_8_216)">
<path d="M64.3987 23.4589V20.5197H76.5795V16.6164H71.4273C71.0911 16.6164 70.794 16.5075 70.5438 16.2743C70.2936 16.0488 70.1685 15.7222 70.1685 15.2868V8.48315C70.1685 7.7678 69.9653 7.30904 69.5587 7.12242C69.1522 6.92803 68.9254 6.82695 68.8785 6.80363V5.55176H87.9394V8.49093H74.4686V13.6539H88.2677V16.6242H81.2079V20.5275H93.3887V23.4667H64.4221L64.3987 23.4589ZM87.8924 26.7247C87.8924 26.7247 87.8534 27.059 87.783 27.6577C87.7126 28.2564 87.6735 28.8396 87.6735 29.415V34.8268L87.353 37.7271H83.4986V29.6638H69.9887V26.7247H87.8924Z" fill="white"/>
<path d="M96.8911 27.9305V24.9213H108.712V18.8253H103.341C103.005 18.8253 102.716 18.7086 102.473 18.4832C102.231 18.2577 102.114 17.9311 102.114 17.4957V8.85699C102.114 8.14164 101.91 7.68288 101.504 7.48071C101.097 7.27855 100.871 7.17746 100.824 7.17746V5.88672H120.275V8.85699H106.367V15.8084H120.596V18.8175H113.317V24.9136H125.131V27.9227H96.8833L96.8911 27.9305Z" fill="white"/>
<path d="M145.106 6.61716C145.106 6.66381 145.067 6.96706 144.981 7.53467C144.895 8.09452 144.856 8.61548 144.856 9.08979V19.9445C144.856 20.4188 144.731 20.7687 144.496 20.9864C144.254 21.2041 143.933 21.3052 143.527 21.3052H132.073C131.714 21.3052 131.409 21.1964 131.158 20.9864C130.908 20.7687 130.783 20.4266 130.783 19.9445V10.1628C130.783 9.40081 130.517 8.8954 129.994 8.63881C129.462 8.38999 129.18 8.25003 129.126 8.2267L129.775 6.97483L135.036 7.51135C135.036 7.51135 135.005 7.78349 134.942 8.26558C134.88 8.74766 134.856 9.25308 134.856 9.80514V11.5624H140.837V9.15977C140.837 8.46774 140.595 7.97788 140.103 7.69019C139.61 7.40249 139.336 7.26253 139.289 7.26253L139.899 6.04176L145.122 6.61716H145.106ZM140.814 14.4627H134.833V18.3661H140.814V14.4627ZM153.284 25.3952C153.284 25.3952 153.261 25.714 153.214 26.2738C153.167 26.8337 153.143 27.4401 153.143 28.0855V34.7881L152.823 37.6884H149.148V28.3732H135.748V25.4029H153.292L153.284 25.3952ZM153.425 14.7504V23.3113H149.57V8.33556C149.57 7.66686 149.391 7.09147 149.031 6.61716C148.671 6.13507 148.226 5.74629 147.702 5.43527L145.904 4.39334L146.623 3.32031L154.332 4.32336C154.308 4.37002 154.152 4.80545 153.863 5.62966C153.573 6.45387 153.433 7.34029 153.433 8.29668V11.7024H158.874V14.7504H153.433H153.425Z" fill="white"/>
<path d="M178.428 21.1813V24.3382H184.909C184.909 24.3848 184.878 24.6725 184.799 25.2012C184.729 25.73 184.69 26.2665 184.69 26.8108V32.1837H172.298V34.6563H185.269V37.5566H169.163C168.78 37.5566 168.475 37.4322 168.24 37.1834C168.014 36.9346 167.896 36.5769 167.896 36.1259V32.2926C167.896 31.6239 167.724 31.1729 167.373 30.9318C167.021 30.6908 166.825 30.5586 166.778 30.5353V29.4623H180.249V27.1296H167.169V24.3382H173.729V21.1813H161.587V18.2421H190.554V21.1813H178.412H178.428ZM185.237 5.0625C185.237 5.10915 185.206 5.56014 185.143 6.40767C185.081 7.25521 185.057 7.75285 185.057 7.89281V14.2688C185.057 14.6498 184.94 14.9764 184.698 15.2407C184.455 15.5051 184.135 15.6373 183.728 15.6373H168.741C168.358 15.6373 168.053 15.5284 167.842 15.2952C167.623 15.0697 167.521 14.7275 167.521 14.2766V8.07942C167.521 7.3874 167.334 6.91309 166.966 6.66427C166.591 6.41545 166.38 6.29104 166.333 6.29104V5.07028H185.245L185.237 5.0625ZM180.953 7.96279H171.548V12.7681H180.953V7.96279Z" fill="white"/>
<path d="M218.558 16.9354V25.5663L218.238 29.112H214.743V23.3425C212.343 23.7235 209.755 23.9956 206.98 24.1512C204.204 24.3067 201.702 24.3844 199.466 24.3844H194.173V21.1576H199.826V16.6088C199.826 15.7769 199.615 15.2403 199.193 15.0149C198.77 14.7894 198.536 14.665 198.489 14.6416L199.068 13.4209L204.04 13.8174C204.04 13.8174 203.977 14.1595 203.93 14.766C203.884 15.3725 203.86 15.8857 203.86 16.29V21.1653C205.611 21.1187 207.425 21.0331 209.302 20.9165C211.178 20.7999 212.992 20.621 214.743 20.38V8.34341C214.743 7.67471 214.571 7.09932 214.219 6.60946C213.867 6.11959 213.43 5.72304 212.906 5.41202L211.178 4.40897L211.897 3.33594L219.465 4.33899C219.442 4.38564 219.285 4.82107 218.996 5.64528C218.707 6.46949 218.566 7.35591 218.566 8.31231V13.9029H224.008V16.951H218.566L218.558 16.9354ZM211.647 7.51142C211.624 9.04321 211.459 10.9093 211.162 13.1176C210.865 15.3259 210.474 17.2231 209.99 18.7938H206.385C206.651 17.4564 206.847 15.979 206.98 14.3539C207.112 12.7288 207.175 11.2592 207.175 9.94518H195.932V7.00601H211.17C211.311 7.00601 211.428 7.05266 211.514 7.15375C211.6 7.24705 211.639 7.37146 211.639 7.51142H211.647ZM204.407 36.8253C204.071 36.8253 203.766 36.7165 203.493 36.5065C203.219 36.2888 203.078 35.9545 203.078 35.5035V30.2006C203.078 29.3608 202.82 28.8243 202.304 28.5677C201.788 28.3189 201.507 28.1789 201.46 28.1556L202.038 26.8648L207.37 27.3314C207.37 27.378 207.331 27.6502 207.261 28.14C207.191 28.6299 207.152 29.1508 207.152 29.6951V33.8473H219.692V36.8253H204.415H204.407Z" fill="white"/>
<path d="M33.3681 40.8532H17.4736L22.0629 17.7598H28.7788L33.3681 40.8532Z" fill="#9C7DB9"/>
<path d="M40.3577 16.6009V40.5263H50.8341V6.17383L40.3577 16.5931V16.6009Z" fill="#6CC071"/>
<path d="M0 6.17383V40.5185H10.4764V16.5931L0 6.17383Z" fill="#F78E1E"/>
<path d="M1.54028 0C1.54028 0 20.7966 21.7405 49.9586 0H1.54028Z" fill="#00BCE4"/>
<path d="M68.9334 42.8516H71.3726C72.6626 42.8516 73.6243 43.1937 74.2732 43.8779C74.9221 44.5622 75.2427 45.5886 75.2427 46.9571C75.2427 48.24 74.9377 49.212 74.3201 49.8574C73.7103 50.5027 72.7877 50.8293 71.5759 50.8293H68.9255V42.8516H68.9334ZM69.9888 49.9351H71.5915C72.4985 49.9351 73.1552 49.6863 73.5774 49.1809C73.9996 48.6755 74.2028 47.8901 74.2028 46.8093C74.2028 45.7752 73.9761 45.0132 73.507 44.5078C73.0379 44.0023 72.3343 43.7535 71.3805 43.7535H69.9966V49.9351H69.9888Z" fill="white"/>
<path d="M77.2129 50.2073C76.7516 49.6785 76.5249 48.9554 76.5249 48.0223C76.5249 47.0893 76.7516 46.3972 77.2129 45.884C77.6742 45.3709 78.3075 45.1143 79.1127 45.1143C79.918 45.1143 80.5591 45.3709 81.0126 45.884C81.4738 46.3972 81.7006 47.1126 81.7006 48.0223C81.7006 48.9321 81.4738 49.6785 81.0126 50.2073C80.5513 50.736 79.918 51.0004 79.1127 51.0004C78.3075 51.0004 77.6742 50.736 77.2129 50.2073ZM80.2464 49.663C80.5122 49.2742 80.6529 48.7299 80.6529 48.0301C80.6529 47.3303 80.52 46.8093 80.2464 46.4283C79.9806 46.0473 79.5975 45.8607 79.1127 45.8607C78.628 45.8607 78.2449 46.0473 77.9791 46.4283C77.7133 46.8093 77.5725 47.3381 77.5725 48.0301C77.5725 48.7221 77.7055 49.282 77.9791 49.663C78.2449 50.0517 78.628 50.2461 79.1127 50.2461C79.5975 50.2461 79.9806 50.0517 80.2464 49.663Z" fill="white"/>
<path d="M84.3039 50.8371H83.3188V42.8594H84.3039V47.5869L86.407 45.2776H87.658L85.3516 47.6258L88.0332 50.8371H86.7041L84.3039 47.7735V50.8371Z" fill="white"/>
<path d="M91.051 51.0004C90.3551 51.0004 89.8079 50.736 89.4091 50.2073C89.0104 49.6785 88.8149 48.9554 88.8149 48.0223C88.8149 47.0892 89.0182 46.3972 89.4248 45.884C89.8313 45.3708 90.3864 45.1143 91.0979 45.1143C91.8093 45.1143 92.3722 45.3708 92.7788 45.8918H92.7866V42.8516H93.7717V50.8293H92.7866V50.0984L92.7084 50.2073C92.3019 50.7282 91.7546 50.9926 91.051 50.9926V51.0004ZM91.3246 45.8607C90.8633 45.8607 90.5037 46.0473 90.2457 46.4283C89.9877 46.8093 89.8626 47.3381 89.8626 48.0301C89.8626 48.7221 89.9877 49.282 90.2457 49.6707C90.5037 50.0595 90.8633 50.2539 91.3246 50.2539C91.7859 50.2539 92.1455 50.0595 92.4035 49.6785C92.6615 49.2975 92.7866 48.7532 92.7866 48.0612C92.7866 47.3692 92.6615 46.8249 92.4035 46.4439C92.1455 46.0629 91.7859 45.8763 91.3246 45.8763V45.8607Z" fill="white"/>
<path d="M95.9531 50.2073C95.4919 49.6785 95.2651 48.9554 95.2651 48.0223C95.2651 47.0893 95.4919 46.3972 95.9531 45.884C96.4144 45.3709 97.0477 45.1143 97.853 45.1143C98.6583 45.1143 99.2993 45.3709 99.7528 45.884C100.214 46.3972 100.441 47.1126 100.441 48.0223C100.441 48.9321 100.214 49.6785 99.7528 50.2073C99.2915 50.736 98.6583 51.0004 97.853 51.0004C97.0477 51.0004 96.4144 50.736 95.9531 50.2073ZM98.9866 49.663C99.2524 49.2742 99.3932 48.7299 99.3932 48.0301C99.3932 47.3303 99.2603 46.8093 98.9866 46.4283C98.7208 46.0473 98.3377 45.8607 97.853 45.8607C97.3682 45.8607 96.9851 46.0473 96.7193 46.4283C96.4535 46.8093 96.3128 47.3381 96.3128 48.0301C96.3128 48.7221 96.4457 49.282 96.7193 49.663C96.9851 50.0517 97.3682 50.2461 97.853 50.2461C98.3377 50.2461 98.7208 50.0517 98.9866 49.663Z" fill="white"/>
<path d="M106.766 50.8371H105.71V42.8594H107.415L109.83 49.5386L112.176 42.8594H113.88V50.8371H112.825V43.6836L110.354 50.8371H109.299L106.758 43.6914V50.8371H106.766Z" fill="white"/>
<path d="M116.609 48.6053C116.609 49.1729 116.711 49.585 116.922 49.8416C117.125 50.0982 117.461 50.2226 117.915 50.2226C118.47 50.2226 118.861 50.0826 119.095 49.7949C119.33 49.5072 119.439 49.0485 119.408 48.4186V45.2695H120.393V50.8291H119.478V50.1059L119.369 50.2537C118.954 50.7513 118.407 50.9924 117.727 50.9924C117.008 50.9924 116.476 50.7902 116.132 50.3936C115.788 49.9971 115.624 49.375 115.624 48.5275V45.2695H116.609V48.6053Z" fill="white"/>
<path d="M125.131 46.7627C125.131 46.4828 125.037 46.265 124.841 46.1018C124.646 45.9385 124.388 45.8607 124.044 45.8607C123.7 45.8607 123.426 45.9307 123.231 46.0629C123.035 46.1951 122.942 46.3817 122.942 46.6227C122.942 46.8016 122.996 46.9415 123.098 47.0582C123.2 47.1748 123.356 47.2603 123.575 47.3225L124.669 47.6258C125.224 47.7813 125.623 47.9834 125.866 48.2323C126.108 48.4733 126.225 48.7999 126.225 49.1964C126.225 49.7563 126.03 50.1917 125.631 50.5105C125.24 50.8293 124.693 50.9926 123.997 50.9926C123.301 50.9926 122.715 50.8371 122.34 50.5261C121.956 50.215 121.769 49.7563 121.769 49.1653H122.785C122.785 49.5075 122.895 49.7718 123.106 49.9584C123.325 50.1451 123.622 50.2461 123.997 50.2461C124.372 50.2461 124.701 50.1606 124.92 49.9973C125.138 49.834 125.248 49.6008 125.248 49.2975C125.248 49.1187 125.178 48.9709 125.045 48.8543C124.912 48.7299 124.701 48.6288 124.419 48.5511L123.325 48.24C122.832 48.1001 122.472 47.9135 122.254 47.6802C122.042 47.4469 121.933 47.1281 121.933 46.7316C121.933 46.2262 122.121 45.8296 122.488 45.5419C122.856 45.2542 123.372 45.1143 124.028 45.1143C124.685 45.1143 125.193 45.262 125.568 45.5575C125.944 45.8529 126.124 46.2573 126.124 46.7705H125.107L125.131 46.7627Z" fill="white"/>
<path d="M129.892 51.0003C129.102 51.0003 128.485 50.7437 128.039 50.2383C127.593 49.7329 127.367 49.0331 127.367 48.1389C127.367 47.1903 127.593 46.4516 128.039 45.9151C128.485 45.3786 129.102 45.1064 129.892 45.1064C130.682 45.1064 131.229 45.3397 131.635 45.8062C132.034 46.2728 132.237 46.9493 132.237 47.8434V48.2167H128.407C128.43 48.8543 128.547 49.3364 128.758 49.6629C128.993 50.0362 129.368 50.2228 129.876 50.2228C130.236 50.2228 130.533 50.1217 130.76 49.9118C130.987 49.7018 131.127 49.4141 131.174 49.0487H132.191C132.112 49.6785 131.878 50.1606 131.487 50.4949C131.096 50.8293 130.564 50.9926 129.9 50.9926L129.892 51.0003ZM131.213 47.4469C131.182 46.9415 131.08 46.5683 130.908 46.3272C130.697 46.024 130.33 45.8762 129.806 45.8762C129.353 45.8762 129.009 46.0551 128.758 46.405C128.571 46.6693 128.453 47.0192 128.414 47.4469H131.213Z" fill="white"/>
<path d="M134.52 48.6053C134.52 49.1729 134.622 49.585 134.833 49.8416C135.037 50.0982 135.373 50.2226 135.826 50.2226C136.373 50.2226 136.772 50.0826 137.007 49.7949C137.241 49.5072 137.351 49.0485 137.319 48.4186V45.2695H138.305V50.8291H137.39V50.1059L137.28 50.2537C136.866 50.7513 136.319 50.9924 135.639 50.9924C134.919 50.9924 134.388 50.7902 134.044 50.3936C133.7 49.9971 133.535 49.375 133.535 48.5275V45.2695H134.52V48.6053Z" fill="white"/>
<path d="M139.97 45.2775H140.955V45.9384L141.049 45.8218C141.424 45.3475 141.932 45.1064 142.573 45.1064C143.128 45.1064 143.582 45.2853 143.941 45.643C144.09 45.7829 144.199 45.9462 144.285 46.125L144.496 45.8374C144.895 45.3475 145.411 45.1064 146.044 45.1064C146.717 45.1064 147.209 45.2931 147.522 45.6585C147.843 46.0317 147.999 46.6071 147.999 47.3925V50.8215H147.014V47.3614C147.014 46.8482 146.92 46.4827 146.732 46.2495C146.545 46.0162 146.248 45.8996 145.833 45.8996C145.356 45.8996 145.012 46.0395 144.801 46.3194C144.59 46.5994 144.481 47.0503 144.481 47.6724V50.8215H143.496V47.3614C143.496 46.8482 143.402 46.4749 143.214 46.2417C143.027 46.0084 142.73 45.8918 142.315 45.8918C141.838 45.8918 141.494 46.0317 141.283 46.3117C141.072 46.5916 140.963 47.0426 140.963 47.6646V50.8137H139.978V45.2542L139.97 45.2775Z" fill="white"/>
</g>
<defs>
<clipPath id="clip0_8_216">
<rect width="224" height="51" fill="white"/>
</clipPath>
</defs>
</svg>
