<svg width="64" height="46" viewBox="0 0 64 46" fill="none" xmlns="http://www.w3.org/2000/svg">
<g clip-path="url(#clip0_8_253)">
<path d="M62.6618 7.18194C61.9273 4.35516 59.7564 2.12935 57.0036 1.37258C52.0145 0 32 0 32 0C32 0 11.9855 0 6.99636 1.37258C4.24364 2.12935 2.07273 4.35516 1.33818 7.18194C0 12.3087 0 23 0 23C0 23 0 33.6913 1.33818 38.8181C2.07273 41.6448 4.24364 43.8706 6.99636 44.6274C11.9891 46 32 46 32 46C32 46 52.0145 46 57.0036 44.6274C59.7564 43.8706 61.9273 41.6448 62.6618 38.8181C64 33.695 64 23 64 23C64 23 64 12.3087 62.6618 7.18194Z" fill="#E7211B"/>
<path d="M25.4546 32.7084L42.1819 23.0002L25.4546 13.292V32.7084Z" fill="white"/>
</g>
<defs>
<clipPath id="clip0_8_253">
<rect width="64" height="46" fill="white"/>
</clipPath>
</defs>
</svg>
