<svg width="191" height="41" viewBox="0 0 191 41" fill="none" xmlns="http://www.w3.org/2000/svg">
<g clip-path="url(#clip0_37_140)">
<path d="M109.412 7.17939H104.266V5.13232H100.592V7.17939H95.4487V10.3038H98.3557C98.2979 10.3463 98.2434 10.3887 98.1888 10.4344C96.9022 11.5543 96.2541 12.9712 96.2541 14.6853C96.2541 16.2948 96.9215 17.6236 98.237 18.6749C99.4466 19.6544 100.842 20.1408 102.431 20.1408C103.929 20.1408 105.277 19.6544 106.47 18.6749C107.792 17.6236 108.453 16.2948 108.453 14.6853C108.453 12.9712 107.818 11.5543 106.541 10.4344C106.489 10.3887 106.435 10.3463 106.377 10.3038H109.406V7.17939H109.412ZM104.199 16.6017C103.676 17.16 103.047 17.4375 102.309 17.4375C101.571 17.4375 100.897 17.16 100.374 16.6017C99.8669 16.0761 99.6167 15.4395 99.6167 14.6853C99.6167 13.9311 99.8669 13.252 100.374 12.6905C100.897 12.1485 101.542 11.8775 102.309 11.8775C103.076 11.8775 103.676 12.1485 104.199 12.6905C104.734 13.252 105.007 13.918 105.007 14.6853C105.007 15.4525 104.738 16.0565 104.199 16.6017Z" fill="white"/>
<path d="M100.691 21.2148H97.2358V27.4376C97.2358 28.1722 97.3834 28.6979 97.6754 29.0113C97.9225 29.2725 98.33 29.4064 98.9011 29.4064H115.656V26.1252H100.691V21.2148Z" fill="white"/>
<path d="M115.49 7.10449H112.037V23.0663H115.49V15.9979H118.284V12.6939H115.49V7.10449Z" fill="white"/>
<path d="M140.879 7.10449H121.48V10.3791H137.426V14.3427H120.768V17.6238H129.488V20.6144H121.48V23.8956H137.426V29.5112H140.879V20.6144H132.918V17.6238H141.912V14.3427H140.879V7.10449Z" fill="white"/>
<path d="M165.72 18.2409V7.10449H162.267V8.78263H158.642V7.10449H155.234V9.77188H149.751V7.10449H146.317V16.2722C146.317 17.0068 146.455 17.5292 146.731 17.8459C146.994 18.1103 147.405 18.2442 147.963 18.2442H154.464C153.996 18.5119 153.553 18.8384 153.132 19.2367C151.679 20.5785 150.954 22.2795 150.954 24.3233C150.954 26.3671 151.679 28.0779 153.132 29.4426C154.49 30.7192 156.097 31.3591 157.958 31.3591C159.819 31.3591 161.414 30.7224 162.787 29.4426C164.269 28.0779 165.014 26.3704 165.014 24.3233C165.014 22.2763 164.269 20.5785 162.787 19.2367C161.532 18.0809 160.095 17.4541 158.481 17.3398C158.584 17.0525 158.638 16.7032 158.638 16.2722V16.22H162.264V18.2442H165.716L165.72 18.2409ZM149.751 15.0413V12.6841H155.234V15.0413H149.751ZM160.409 21.7506C161.128 22.4526 161.488 23.3112 161.488 24.3233C161.488 25.3354 161.128 26.1941 160.409 26.8993C159.723 27.5816 158.914 27.9244 157.984 27.9244C157.053 27.9244 156.27 27.5816 155.587 26.8993C154.865 26.1973 154.506 25.3387 154.506 24.3233C154.506 23.3079 154.865 22.4526 155.587 21.7506C156.27 21.0846 157.069 20.7548 157.984 20.7548C158.898 20.7548 159.723 21.0879 160.409 21.7506ZM158.642 13.422V11.5806H162.267V13.422H158.642Z" fill="white"/>
<path d="M182.77 22.6615H186.79V24.4213H190.268V7.10449H186.816V19.7231H182.77V22.6615Z" fill="white"/>
<path d="M180.662 15.4265C180.967 15.2502 181.265 15.0445 181.554 14.8062C182.838 13.7875 183.482 12.4946 183.482 10.934C183.482 9.26244 182.86 7.88794 181.625 6.80075C180.482 5.77885 179.151 5.26953 177.624 5.26953C176.096 5.26953 174.662 5.77885 173.504 6.80075C172.246 7.88794 171.62 9.26244 171.62 10.934C171.62 12.4979 172.265 13.7875 173.552 14.8062C173.844 15.0412 174.145 15.2502 174.46 15.4265H170.359V18.515H177.075V23.3078H180.409V18.515H184.74V15.4265H180.662ZM179.34 12.795C178.827 13.3402 178.22 13.608 177.508 13.608C176.757 13.608 176.135 13.3402 175.625 12.795C175.134 12.2824 174.887 11.6621 174.887 10.934C174.887 10.206 175.134 9.53996 175.625 8.99473C176.132 8.46909 176.757 8.20463 177.508 8.20463C178.259 8.20463 178.83 8.46909 179.34 8.99473C179.863 9.53996 180.126 10.1831 180.126 10.934C180.126 11.6425 179.866 12.2661 179.34 12.795Z" fill="white"/>
<path d="M175.423 26.1255V20.4839H172.015V27.4413C172.015 28.1759 172.16 28.7015 172.458 29.0149C172.715 29.2761 173.132 29.41 173.703 29.41H190.436V26.1288H175.419L175.423 26.1255Z" fill="white"/>
<path d="M63.6196 10.3691H60.6035V13.4968H63.6196V18.2308H67.0495V7.08789H63.6196V10.3691Z" fill="white"/>
<path d="M81.5203 13.8985C82.2358 14.9531 83.6508 15.7497 85.7749 16.2917C87.315 16.6932 89.1054 16.9316 91.1492 17.0001V13.6928C88.961 13.621 87.2027 13.3043 85.8712 12.7428C84.4465 12.1486 83.7086 11.3421 83.6604 10.3268H91.146V7.03906H71.8882V10.3268H79.3513C79.3192 11.3748 78.5909 12.2008 77.1663 12.795C75.8508 13.3402 74.0925 13.6471 71.8882 13.7157V17.0034C73.8679 16.9152 75.6326 16.6769 77.1887 16.2949C79.3449 15.7529 80.7856 14.9563 81.5171 13.9018L81.5203 13.8985Z" fill="white"/>
<path d="M70.9189 19.1807V22.4651H79.7939V29.5857H83.2206V22.4651H92.118V19.1807H70.9189Z" fill="white"/>
<path d="M60.0677 17.3917V14.7243C58.8163 14.486 57.7382 14.1203 57.0612 13.389C56.3489 12.6185 55.7168 11.4105 55.6591 10.2123H59.9682V7.15964H55.4569V5.12891H51.7735V7.15964H47.3168V10.2123H51.4238C51.3788 11.6423 50.766 12.8242 50.1435 13.389C49.428 14.0419 48.4494 14.486 47.2141 14.7243V18.2601C48.4173 18.185 49.6013 17.8226 50.7724 17.1697C52.043 16.4645 52.9928 15.3773 53.6281 14.2705C54.2281 15.374 55.1329 16.4514 56.3329 17.1436C56.6377 17.3199 56.9425 17.4733 57.2569 17.6072C54.3115 18.443 52.1585 21.143 52.1585 24.3458C52.1585 28.2179 55.3093 31.3522 59.1917 31.3522C63.0741 31.3522 66.2217 28.2179 66.2217 24.3458C66.2217 20.7708 63.5393 17.8194 60.0645 17.3917H60.0677ZM61.6078 26.9087C60.9211 27.5878 60.1094 27.9339 59.1821 27.9339C58.2548 27.9339 57.4687 27.5911 56.7821 26.9087C56.0602 26.2035 55.7008 25.3481 55.7008 24.3328C55.7008 23.3174 56.0602 22.462 56.7821 21.7633C57.4687 21.0973 58.2676 20.761 59.1821 20.761C60.0965 20.761 60.9243 21.094 61.6078 21.7633C62.3265 22.462 62.6826 23.3207 62.6826 24.3328C62.6826 25.3449 62.3265 26.2035 61.6078 26.9087Z" fill="white"/>
<path d="M51.3532 40.6275C51.1222 40.7515 50.6184 40.8691 49.9767 40.8691C48.2826 40.8691 47.2559 39.7917 47.2559 38.1396C47.2559 36.3538 48.4751 35.2764 50.1019 35.2764C50.7436 35.2764 51.2024 35.4135 51.3981 35.518L51.1864 36.3048C50.9329 36.1938 50.5864 36.0958 50.1436 36.0958C49.0591 36.0958 48.2762 36.788 48.2762 38.0907C48.2762 39.2823 48.9628 40.0463 50.134 40.0463C50.5286 40.0463 50.9393 39.9647 51.1928 39.8439L51.35 40.6242L51.3532 40.6275Z" fill="white"/>
<path d="M53.1116 35.3647V37.5359H55.3672V35.3647H56.3394V40.7877H55.3672V38.3978H53.1116V40.7877H52.1394V35.3647H53.1116Z" fill="white"/>
<path d="M60.3917 38.3844H58.3831V39.9776H60.6291V40.7906H57.4077V35.3677H60.5104V36.1806H58.3831V37.5812H60.3917V38.3844Z" fill="white"/>
<path d="M66.1704 38.0221C66.1704 39.8406 65.0891 40.8789 63.6164 40.8789C62.1437 40.8789 61.165 39.7133 61.165 38.1168C61.165 36.5203 62.1918 35.2764 63.6966 35.2764C65.2014 35.2764 66.1704 36.4746 66.1704 38.0221ZM62.1918 38.1037C62.1918 39.2072 62.7372 40.0822 63.6709 40.0822C64.6046 40.0822 65.1437 39.1975 65.1437 38.0613C65.1437 37.0427 64.6463 36.073 63.6709 36.073C62.6955 36.073 62.1918 36.9839 62.1918 38.1005V38.1037Z" fill="white"/>
<path d="M66.9663 40.7906V35.3677H68.0733L69.4497 37.6922C69.8059 38.2962 70.1139 38.9264 70.361 39.5108H70.377C70.3128 38.7892 70.2904 38.0873 70.2904 37.258V35.3677H71.192V40.7906H70.1877L68.7952 38.4105C68.4551 37.813 68.0989 37.147 67.839 36.5332L67.8134 36.543C67.8519 37.2417 67.8615 37.96 67.8615 38.8513V40.7906H66.9663Z" fill="white"/>
<path d="M76.5406 40.5394C76.2005 40.67 75.5363 40.8463 74.824 40.8463C73.9224 40.8463 73.2422 40.6112 72.7352 40.1215C72.2604 39.6644 71.9844 38.9461 71.9908 38.1266C71.9908 36.4126 73.194 35.3091 74.9556 35.3091C75.6133 35.3091 76.1267 35.4462 76.3705 35.567L76.1588 36.3669C75.8668 36.2363 75.5106 36.1318 74.9491 36.1318C73.8101 36.1318 73.0112 36.8174 73.0112 38.0809C73.0112 39.3444 73.7556 40.0464 74.8625 40.0464C75.209 40.0464 75.4721 39.9974 75.5973 39.9321V38.5805H74.6572V37.8002H76.5406V40.5459V40.5394Z" fill="white"/>
<path d="M78.5524 35.3646H79.5246V38.8808C79.5246 40.3761 78.8123 40.8757 77.7535 40.8757C77.4839 40.8757 77.1438 40.83 76.9385 40.7483L77.0572 39.9517C77.2144 39.9974 77.4294 40.0464 77.6572 40.0464C78.2123 40.0464 78.5524 39.7885 78.5524 38.8482V35.3613V35.3646Z" fill="white"/>
<path d="M81.5171 35.3647V38.5284C81.5171 39.5895 81.9535 40.0825 82.608 40.0825C83.3139 40.0825 83.731 39.5927 83.731 38.5284V35.3647H84.7032V38.4631C84.7032 40.138 83.8562 40.8758 82.5759 40.8758C81.2957 40.8758 80.5449 40.1771 80.5449 38.4696V35.3647H81.5171Z" fill="white"/>
<path d="M88.3448 35.3647V37.5359H90.6004V35.3647H91.5726V40.7877H90.6004V38.3978H88.3448V40.7877H87.3726V35.3647H88.3448Z" fill="white"/>
<path d="M93.7126 39.2528L93.2538 40.7906H92.2495L93.9565 35.3677H95.1982L96.9308 40.7906H95.888L95.4067 39.2528H93.7126ZM95.2367 38.5052L94.8164 37.1666C94.7137 36.8369 94.6271 36.4679 94.5469 36.1512H94.5308C94.4506 36.4647 94.3736 36.8434 94.2773 37.1666L93.8666 38.5052H95.2367Z" fill="white"/>
<path d="M97.6304 40.7906V35.3677H98.7373L100.114 37.6922C100.47 38.2962 100.778 38.9264 101.025 39.5108H101.041C100.977 38.7892 100.954 38.0873 100.954 37.258V35.3677H101.856V40.7906H100.852L99.4593 38.4105C99.1192 37.813 98.763 37.147 98.5031 36.5332L98.4774 36.543C98.5159 37.2417 98.5256 37.96 98.5256 38.8513V40.7906H97.6304Z" fill="white"/>
<path d="M102.934 35.3647H103.9V37.8591H103.926C104.051 37.6501 104.185 37.4575 104.314 37.2714L105.706 35.3647H106.91L105.074 37.6763L107.028 40.7909H105.889L104.378 38.3031L103.903 38.8843V40.7909H102.937V35.368L102.934 35.3647Z" fill="white"/>
<path d="M112.018 38.0221C112.018 39.8406 110.933 40.8789 109.464 40.8789C107.994 40.8789 107.012 39.7133 107.012 38.1168C107.012 36.5203 108.039 35.2764 109.544 35.2764C111.049 35.2764 112.018 36.4746 112.018 38.0221ZM108.039 38.1037C108.039 39.2072 108.584 40.0822 109.518 40.0822C110.452 40.0822 110.991 39.1975 110.991 38.0613C110.991 37.0427 110.494 36.073 109.518 36.073C108.543 36.073 108.039 36.9839 108.039 38.1005V38.1037Z" fill="white"/>
<path d="M117.543 38.0221C117.543 39.8406 116.458 40.8789 114.989 40.8789C113.519 40.8789 112.538 39.7133 112.538 38.1168C112.538 36.5203 113.564 35.2764 115.069 35.2764C116.574 35.2764 117.543 36.4746 117.543 38.0221ZM113.564 38.1037C113.564 39.2072 114.11 40.0822 115.043 40.0822C115.977 40.0822 116.513 39.1975 116.513 38.0613C116.513 37.0427 116.016 36.073 115.043 36.073C114.071 36.073 113.564 36.9839 113.564 38.1005V38.1037Z" fill="white"/>
<path d="M118.338 35.3647H119.304V37.8591H119.33C119.455 37.6501 119.59 37.4575 119.718 37.2714L121.111 35.3647H122.314L120.478 37.6763L122.433 40.7909H121.293L119.782 38.3031L119.307 38.8843V40.7909H118.342V35.368L118.338 35.3647Z" fill="white"/>
<path d="M128.763 40.5394C128.423 40.67 127.759 40.8463 127.047 40.8463C126.145 40.8463 125.465 40.6112 124.958 40.1215C124.483 39.6644 124.207 38.9461 124.213 38.1266C124.213 36.4126 125.417 35.3091 127.178 35.3091C127.836 35.3091 128.349 35.4462 128.593 35.567L128.381 36.3669C128.089 36.2363 127.733 36.1318 127.172 36.1318C126.033 36.1318 125.234 36.8174 125.234 38.0809C125.234 39.3444 125.978 40.0464 127.085 40.0464C127.432 40.0464 127.695 39.9974 127.82 39.9321V38.5805H126.88V37.8002H128.763V40.5459V40.5394Z" fill="white"/>
<path d="M132.7 38.3844H130.692V39.9776H132.938V40.7906H129.716V35.3677H132.816V36.1806H130.689V37.5812H132.697V38.3844H132.7Z" fill="white"/>
<path d="M133.746 40.7906V35.3677H134.853L136.23 37.6922C136.586 38.2962 136.894 38.9264 137.141 39.5108H137.157C137.093 38.7892 137.07 38.0873 137.07 37.258V35.3677H137.972V40.7906H136.968L135.575 38.4105C135.235 37.813 134.879 37.147 134.619 36.5332L134.593 36.543C134.632 37.2417 134.641 37.96 134.641 38.8513V40.7906H133.746Z" fill="white"/>
<path d="M142.034 38.3844H140.025V39.9776H142.271V40.7906H139.05V35.3677H142.149V36.1806H140.022V37.5812H142.031V38.3844H142.034Z" fill="white"/>
<path d="M143.08 35.4396C143.443 35.3743 143.991 35.3286 144.553 35.3286C145.32 35.3286 145.843 35.4559 146.199 35.7628C146.491 36.011 146.658 36.3897 146.658 36.8468C146.658 37.5454 146.189 38.0221 145.692 38.2082V38.2311C146.07 38.378 146.301 38.7567 146.436 39.2791C146.603 39.9549 146.744 40.5818 146.857 40.7907H145.852C145.772 40.6307 145.647 40.1867 145.496 39.5109C145.345 38.8024 145.092 38.5771 144.54 38.5608H144.049V40.7907H143.083V35.4396H143.08ZM144.046 37.836H144.623C145.278 37.836 145.692 37.4834 145.692 36.9415C145.692 36.3472 145.281 36.073 144.649 36.073C144.341 36.073 144.142 36.0991 144.049 36.122V37.836H144.046Z" fill="white"/>
<path d="M148.663 39.2528L148.204 40.7906H147.2L148.907 35.3677H150.148L151.881 40.7906H150.838L150.357 39.2528H148.663ZM150.187 38.5052L149.767 37.1666C149.664 36.8369 149.577 36.4679 149.497 36.1512H149.481C149.401 36.4647 149.324 36.8434 149.228 37.1666L148.817 38.5052H150.187Z" fill="white"/>
<path d="M152.581 35.3647H153.553V39.9617H155.744V40.7909H152.581V35.368V35.3647Z" fill="white"/>
<path d="M159.007 35.3647V37.5359H161.263V35.3647H162.235V40.7877H161.263V38.3978H159.007V40.7877H158.035V35.3647H159.007Z" fill="white"/>
<path d="M168.036 38.0221C168.036 39.8406 166.955 40.8789 165.482 40.8789C164.009 40.8789 163.031 39.7133 163.031 38.1168C163.031 36.5203 164.058 35.2764 165.562 35.2764C167.067 35.2764 168.036 36.4746 168.036 38.0221ZM164.058 38.1037C164.058 39.2072 164.603 40.0822 165.537 40.0822C166.47 40.0822 167.009 39.1975 167.009 38.0613C167.009 37.0427 166.512 36.073 165.537 36.073C164.561 36.073 164.058 36.9839 164.058 38.1005V38.1037Z" fill="white"/>
<path d="M168.806 39.7133C169.124 39.8994 169.599 40.0594 170.096 40.0594C170.722 40.0594 171.068 39.7623 171.068 39.3183C171.068 38.9069 170.799 38.6685 170.119 38.4172C169.239 38.0939 168.678 37.6173 168.678 36.837C168.678 35.9522 169.406 35.2764 170.558 35.2764C171.136 35.2764 171.562 35.407 171.842 35.5506L171.604 36.3505C171.415 36.2428 171.043 36.0926 170.545 36.0926C169.929 36.0926 169.66 36.4289 169.66 36.7423C169.66 37.1602 169.968 37.3528 170.68 37.6369C171.604 37.9895 172.057 38.4661 172.057 39.2464C172.057 40.1149 171.408 40.8723 170.032 40.8723C169.47 40.8723 168.886 40.7123 168.591 40.5328L168.803 39.7133H168.806Z" fill="white"/>
<path d="M172.894 35.4396C173.244 35.3743 173.725 35.3286 174.383 35.3286C175.095 35.3286 175.615 35.4788 175.955 35.7726C176.269 36.0371 176.478 36.4648 176.478 36.9708C176.478 37.4769 176.321 37.9111 176.019 38.2017C175.631 38.5967 175.025 38.7828 174.335 38.7828C174.152 38.7828 173.988 38.7763 173.86 38.7502V40.794H172.894V35.4429V35.4396ZM173.857 37.9633C173.975 37.996 174.133 38.0058 174.331 38.0058C175.06 38.0058 175.503 37.6434 175.503 37.0067C175.503 36.4027 175.092 36.0795 174.421 36.0795C174.152 36.0795 173.963 36.1056 173.86 36.1285V37.9633H173.857Z" fill="white"/>
<path d="M178.243 35.3647V40.7877H177.271V35.3647H178.243Z" fill="white"/>
<path d="M180.338 36.194H178.82V35.3647H182.847V36.194H181.313V40.7877H180.338V36.194Z" fill="white"/>
<path d="M183.919 39.2528L183.46 40.7906H182.456L184.163 35.3677H185.404L187.137 40.7906H186.094L185.613 39.2528H183.919ZM185.443 38.5052L185.022 37.1666C184.92 36.8369 184.833 36.4679 184.753 36.1512H184.737C184.657 36.4647 184.58 36.8434 184.483 37.1666L184.073 38.5052H185.443Z" fill="white"/>
<path d="M187.836 35.3647H188.809V39.9617H191V40.7909H187.836V35.368V35.3647Z" fill="white"/>
<path d="M31.2033 27.6046C31.2033 27.6046 28.3862 35.7733 19.7615 35.9822C13.9123 36.1226 8.85559 32.3484 6.88553 26.7427C4.46627 19.3935 8.20425 11.2771 15.7669 7.4474C18.5423 6.09575 21.4845 5.41013 24.5166 5.41013C28.7712 5.41013 33.0033 6.76831 36.7509 9.33775L36.8344 9.39652C37.7199 10.0364 37.9445 10.1736 38.291 10.1736C38.291 10.1736 38.6921 10.167 38.8878 9.99725C39.0868 9.82421 39.1189 9.64791 39.1189 9.64791C39.3627 9.09942 38.9584 8.70111 38.7178 8.46277C35.4771 5.27954 30.1862 3.16392 24.8953 2.93864C24.661 2.93211 24.4236 2.92885 24.1926 2.92885C18.7733 2.92885 14.2556 4.50904 9.58073 8.36809C14.5316 3.72547 19.1391 2.16487 25.2418 1.74371C26.5862 1.65229 28.5306 1.77309 29.4739 1.77309C30.6964 1.77309 30.5841 0.823019 29.6504 0.58795C27.7477 0.101487 22.4182 -0.793082 15.2727 1.51843C8.54436 3.68956 3.49086 8.45951 1.21598 14.7737C-0.917722 20.6929 -0.231087 26.8896 3.17 32.2439C6.84703 37.6832 12.523 40.8436 19.2835 40.9905C22.9509 41.0721 25.6493 40.1775 28.6012 38.5647C33.5424 35.708 36.2536 30.7258 36.4493 25.7208H31.691C31.5915 26.3705 31.4375 26.9582 31.2033 27.5981V27.6046Z" fill="white"/>
<path d="M31.5659 14.6072C29.8878 13.1903 27.4813 11.7635 24.2214 11.5448C22.3701 11.4207 20.9391 11.5611 19.7358 12.1194C19.7358 12.1194 18.5808 12.632 18.6995 13.1413C18.8439 13.7616 19.8064 13.7845 19.8064 13.7845C20.2236 13.7388 20.6471 13.7159 21.0674 13.7159C23.5412 13.7159 25.8546 14.4929 27.7637 15.9621C28.2995 16.3702 28.7776 16.7685 29.214 17.2615H31.5659V14.6105V14.6072Z" fill="white"/>
<path fill-rule="evenodd" clip-rule="evenodd" d="M35.641 18.2637V14.9531H32.5576V18.2637H29.2944V21.4077H32.5576V24.7183H35.641V21.4077H38.9009V18.2637H35.641Z" fill="white"/>
<path d="M17.9649 28.0287V18.355H15.5585V22.1259H12.2921V18.355H9.88892V28.0287H12.2921V24.0391H15.5585V28.0287H17.9649Z" fill="white"/>
<path d="M19.5916 18.355V28.0287H21.998V25.8086L23.4643 23.8269L25.5563 28.0287H28.2515L25.1103 21.8092L27.6258 18.355H25.2771L21.998 22.8997V18.355H19.5916Z" fill="white"/>
</g>
<defs>
<clipPath id="clip0_37_140">
<rect width="191" height="41" fill="white"/>
</clipPath>
</defs>
</svg>
