<svg width="241" height="53" viewBox="0 0 241 53" fill="none" xmlns="http://www.w3.org/2000/svg">
<g clip-path="url(#clip0_37_504)">
<path d="M138.054 9.27999H131.56V6.63379H126.925V9.27999H120.435V13.3189H124.103C124.03 13.3738 123.961 13.4287 123.892 13.4877C122.269 14.9353 121.451 16.767 121.451 18.9827C121.451 21.0634 122.293 22.7811 123.953 24.1401C125.48 25.4062 127.241 26.035 129.245 26.035C131.135 26.035 132.836 25.4062 134.342 24.1401C136.01 22.7811 136.844 21.0634 136.844 18.9827C136.844 16.767 136.042 14.9353 134.431 13.4877C134.366 13.4287 134.297 13.3738 134.224 13.3189H138.046V9.27999H138.054ZM131.475 21.4601C130.815 22.1818 130.022 22.5405 129.091 22.5405C128.16 22.5405 127.309 22.1818 126.65 21.4601C126.01 20.7806 125.694 19.9576 125.694 18.9827C125.694 18.0078 126.01 17.13 126.65 16.4041C127.309 15.7035 128.123 15.3532 129.091 15.3532C130.058 15.3532 130.815 15.7035 131.475 16.4041C132.151 17.13 132.496 17.9909 132.496 18.9827C132.496 19.9745 132.156 20.7553 131.475 21.4601Z" fill="white"/>
<path d="M127.05 27.4238H122.69V35.4679C122.69 36.4175 122.876 37.097 123.245 37.5022C123.556 37.8398 124.07 38.0129 124.791 38.0129H145.932V33.7713H127.05V27.4238Z" fill="white"/>
<path d="M145.722 9.18262H141.366V29.8162H145.722V20.679H149.248V16.408H145.722V9.18262Z" fill="white"/>
<path d="M177.758 9.18262H153.281V13.4157H173.402V18.5393H152.382V22.7808H163.386V26.6467H153.281V30.8882H173.402V38.1473H177.758V26.6467H167.714V22.7808H179.062V18.5393H177.758V9.18262Z" fill="white"/>
<path d="M209.101 23.5785V9.18262H204.745V11.3519H200.17V9.18262H195.871V12.6307H188.952V9.18262H184.62V21.0335C184.62 21.9831 184.794 22.6584 185.142 23.0678C185.474 23.4096 185.993 23.5827 186.697 23.5827H194.899C194.308 23.9288 193.75 24.3508 193.219 24.8657C191.385 26.6003 190.47 28.7991 190.47 31.4411C190.47 34.0831 191.385 36.2946 193.219 38.0587C194.932 39.7089 196.96 40.5361 199.308 40.5361C201.656 40.5361 203.668 39.7131 205.401 38.0587C207.272 36.2946 208.211 34.0873 208.211 31.4411C208.211 28.7949 207.272 26.6003 205.401 24.8657C203.818 23.3717 202.004 22.5613 199.968 22.4136C200.098 22.0422 200.166 21.5906 200.166 21.0335V20.966H204.741V23.5827H209.097L209.101 23.5785ZM188.952 19.4425V16.3953H195.871V19.4425H188.952ZM202.401 28.1154C203.308 29.0228 203.761 30.1328 203.761 31.4411C203.761 32.7494 203.308 33.8594 202.401 34.771C201.535 35.6531 200.515 36.0962 199.341 36.0962C198.166 36.0962 197.179 35.6531 196.316 34.771C195.405 33.8636 194.952 32.7536 194.952 31.4411C194.952 30.1285 195.405 29.0228 196.316 28.1154C197.179 27.2544 198.187 26.8282 199.341 26.8282C200.494 26.8282 201.535 27.2587 202.401 28.1154ZM200.17 17.3491V14.9688H204.745V17.3491H200.17Z" fill="white"/>
<path d="M230.615 29.2939H235.688V31.5687H240.077V9.18359H235.72V25.4955H230.615V29.2939Z" fill="white"/>
<path d="M227.955 19.9412C228.34 19.7133 228.716 19.4475 229.081 19.1394C230.7 17.8226 231.514 16.1513 231.514 14.1339C231.514 11.9731 230.729 10.1963 229.17 8.7909C227.729 7.46991 226.049 6.81152 224.121 6.81152C222.194 6.81152 220.385 7.46991 218.923 8.7909C217.336 10.1963 216.547 11.9731 216.547 14.1339C216.547 16.1555 217.36 17.8226 218.984 19.1394C219.352 19.4432 219.733 19.7133 220.13 19.9412H214.956V23.9338H223.429V30.1293H227.636V23.9338H233.101V19.9412H227.955ZM226.287 16.5396C225.64 17.2444 224.874 17.5905 223.976 17.5905C223.028 17.5905 222.243 17.2444 221.599 16.5396C220.98 15.877 220.668 15.0751 220.668 14.1339C220.668 13.1928 220.98 12.3318 221.599 11.627C222.239 10.9475 223.028 10.6057 223.976 10.6057C224.923 10.6057 225.644 10.9475 226.287 11.627C226.947 12.3318 227.279 13.1633 227.279 14.1339C227.279 15.0498 226.951 15.8559 226.287 16.5396Z" fill="white"/>
<path d="M221.344 33.7714V26.4785H217.044V35.4722C217.044 36.4218 217.227 37.1013 217.603 37.5065C217.927 37.8441 218.453 38.0171 219.174 38.0171H240.287V33.7756H221.34L221.344 33.7714Z" fill="white"/>
<path d="M80.2739 13.4036H76.4683V17.4468H80.2739V23.5664H84.6017V9.16211H80.2739V13.4036Z" fill="white"/>
<path d="M102.861 17.9657C103.763 19.3289 105.549 20.3587 108.229 21.0593C110.172 21.5784 112.431 21.8865 115.01 21.9751V17.6998C112.249 17.607 110.031 17.1976 108.35 16.4717C106.553 15.7036 105.622 14.6611 105.561 13.3486H115.006V9.09863H90.707V13.3486H100.124C100.083 14.7033 99.1644 15.7711 97.3668 16.5392C95.7069 17.244 93.4884 17.6408 90.707 17.7294V21.9793C93.205 21.8654 95.4316 21.5573 97.3952 21.0635C100.116 20.3629 101.934 19.3331 102.857 17.97L102.861 17.9657Z" fill="white"/>
<path d="M89.4844 24.7949V29.0407H100.683V38.2454H105.006V29.0407H116.233V24.7949H89.4844Z" fill="white"/>
<path d="M75.7921 22.4818V19.0337C74.2132 18.7256 72.8529 18.2529 71.9986 17.3075C71.0999 16.3115 70.3023 14.75 70.2294 13.2011H75.6666V9.25498H69.9744V6.62988H65.3267V9.25498H59.7033V13.2011H64.8854C64.8287 15.0496 64.0554 16.5774 63.27 17.3075C62.3672 18.1516 61.1324 18.7256 59.5737 19.0337V23.6044C61.0919 23.5073 62.5858 23.0389 64.0635 22.1948C65.6667 21.2832 66.8651 19.8778 67.6667 18.4471C68.4238 19.8736 69.5655 21.2663 71.0796 22.161C71.4642 22.3889 71.8488 22.5873 72.2456 22.7603C68.529 23.8407 65.8125 27.331 65.8125 31.4713C65.8125 36.4767 69.7881 40.5283 74.6868 40.5283C79.5855 40.5283 83.5571 36.4767 83.5571 31.4713C83.5571 26.8499 80.1726 23.0346 75.788 22.4818H75.7921ZM77.7354 34.7843C76.869 35.6621 75.8447 36.1095 74.6747 36.1095C73.5047 36.1095 72.5128 35.6664 71.6464 34.7843C70.7355 33.8727 70.2821 32.7669 70.2821 31.4544C70.2821 30.1418 70.7355 29.0361 71.6464 28.1329C72.5128 27.2719 73.5209 26.8372 74.6747 26.8372C75.8285 26.8372 76.873 27.2677 77.7354 28.1329C78.6422 29.0361 79.0916 30.146 79.0916 31.4544C79.0916 32.7627 78.6422 33.8727 77.7354 34.7843Z" fill="white"/>
<path d="M64.7969 52.5188C64.5054 52.6792 63.8698 52.8311 63.0601 52.8311C60.9225 52.8311 59.627 51.4384 59.627 49.3029C59.627 46.9943 61.1654 45.6016 63.218 45.6016C64.0277 45.6016 64.6066 45.7788 64.8536 45.9139L64.5864 46.931C64.2666 46.7875 63.8293 46.6609 63.2706 46.6609C61.9022 46.6609 60.9144 47.5556 60.9144 49.2396C60.9144 50.78 61.7808 51.7676 63.2585 51.7676C63.7564 51.7676 64.2746 51.6621 64.5945 51.5059L64.7929 52.5146L64.7969 52.5188Z" fill="white"/>
<path d="M67.0148 45.7158V48.5224H69.8609V45.7158H71.0876V52.7259H69.8609V49.6366H67.0148V52.7259H65.7881V45.7158H67.0148Z" fill="white"/>
<path d="M76.2012 49.6194H73.6668V51.679H76.5007V52.7298H72.436V45.7197H76.3509V46.7706H73.6668V48.5812H76.2012V49.6194Z" fill="white"/>
<path d="M83.4924 49.1509C83.4924 51.5017 82.1281 52.8438 80.2698 52.8438C78.4116 52.8438 77.1768 51.3371 77.1768 49.2733C77.1768 47.2095 78.4723 45.6016 80.371 45.6016C82.2698 45.6016 83.4924 47.1505 83.4924 49.1509ZM78.4723 49.2564C78.4723 50.6829 79.1605 51.814 80.3386 51.814C81.5168 51.814 82.1969 50.6703 82.1969 49.2016C82.1969 47.8848 81.5694 46.6313 80.3386 46.6313C79.1079 46.6313 78.4723 47.8088 78.4723 49.2522V49.2564Z" fill="white"/>
<path d="M84.4966 52.7298V45.7197H85.8933L87.6301 48.7247C88.0795 49.5054 88.4682 50.32 88.7799 51.0754H88.8001C88.7192 50.1427 88.6908 49.2353 88.6908 48.1633V45.7197H89.8285V52.7298H88.5613L86.8042 49.6532C86.3751 48.8808 85.9257 48.0199 85.5978 47.2264L85.5654 47.2391C85.614 48.1422 85.6261 49.0707 85.6261 50.2229V52.7298H84.4966Z" fill="white"/>
<path d="M96.5769 52.4047C96.1477 52.5735 95.3097 52.8014 94.4109 52.8014C93.2733 52.8014 92.415 52.4975 91.7753 51.8644C91.1762 51.2736 90.828 50.3451 90.8361 49.2858C90.8361 47.0701 92.3543 45.6436 94.5769 45.6436C95.4069 45.6436 96.0546 45.8208 96.3623 45.977L96.0951 47.011C95.7267 46.8422 95.2773 46.7071 94.5688 46.7071C93.1316 46.7071 92.1235 47.5934 92.1235 49.2267C92.1235 50.86 93.0628 51.7674 94.4595 51.7674C94.8967 51.7674 95.2287 51.7041 95.3866 51.6197V49.8724H94.2004V48.8637H96.5769V52.4131V52.4047Z" fill="white"/>
<path d="M99.1155 45.7152H100.342V50.2605C100.342 52.1935 99.4434 52.8392 98.1074 52.8392C97.7674 52.8392 97.3382 52.7801 97.0791 52.6746L97.2289 51.6448C97.4273 51.7039 97.6985 51.7672 97.986 51.7672C98.6864 51.7672 99.1155 51.4338 99.1155 50.2183V45.7109V45.7152Z" fill="white"/>
<path d="M102.857 45.7158V49.8054C102.857 51.177 103.407 51.8143 104.233 51.8143C105.124 51.8143 105.65 51.1813 105.65 49.8054V45.7158H106.877V49.721C106.877 51.8861 105.808 52.8399 104.193 52.8399C102.577 52.8399 101.63 51.9367 101.63 49.7294V45.7158H102.857Z" fill="white"/>
<path d="M111.472 45.7158V48.5224H114.318V45.7158H115.545V52.7259H114.318V49.6366H111.472V52.7259H110.245V45.7158H111.472Z" fill="white"/>
<path d="M118.245 50.742L117.666 52.7298H116.398L118.552 45.7197H120.119L122.305 52.7298H120.989L120.382 50.742H118.245ZM120.168 49.7755L119.637 48.0452C119.508 47.6189 119.398 47.142 119.297 46.7326H119.277C119.176 47.1378 119.079 47.6274 118.957 48.0452L118.439 49.7755H120.168Z" fill="white"/>
<path d="M123.188 52.7298V45.7197H124.585L126.322 48.7247C126.771 49.5054 127.16 50.32 127.471 51.0754H127.492C127.411 50.1427 127.382 49.2353 127.382 48.1633V45.7197H128.52V52.7298H127.253L125.496 49.6532C125.067 48.8808 124.617 48.0199 124.289 47.2264L124.257 47.2391C124.305 48.1422 124.318 49.0707 124.318 50.2229V52.7298H123.188Z" fill="white"/>
<path d="M129.88 45.7158H131.099V48.9402H131.131C131.289 48.6701 131.459 48.4211 131.621 48.1805L133.378 45.7158H134.896L132.581 48.7039L135.046 52.7302H133.609L131.702 49.5142L131.103 50.2654V52.7302H129.884V45.72L129.88 45.7158Z" fill="white"/>
<path d="M141.342 49.1509C141.342 51.5017 139.973 52.8438 138.119 52.8438C136.265 52.8438 135.026 51.3371 135.026 49.2733C135.026 47.2095 136.321 45.6016 138.22 45.6016C140.119 45.6016 141.342 47.1505 141.342 49.1509ZM136.321 49.2564C136.321 50.6829 137.01 51.814 138.188 51.814C139.366 51.814 140.046 50.6703 140.046 49.2016C140.046 47.8848 139.419 46.6313 138.188 46.6313C136.957 46.6313 136.321 47.8088 136.321 49.2522V49.2564Z" fill="white"/>
<path d="M148.313 49.1509C148.313 51.5017 146.945 52.8438 145.091 52.8438C143.236 52.8438 141.998 51.3371 141.998 49.2733C141.998 47.2095 143.293 45.6016 145.192 45.6016C147.091 45.6016 148.313 47.1505 148.313 49.1509ZM143.293 49.2564C143.293 50.6829 143.981 51.814 145.159 51.814C146.338 51.814 147.014 50.6703 147.014 49.2016C147.014 47.8848 146.386 46.6313 145.159 46.6313C143.933 46.6313 143.293 47.8088 143.293 49.2522V49.2564Z" fill="white"/>
<path d="M149.317 45.7158H150.535V48.9402H150.568C150.726 48.6701 150.896 48.4211 151.058 48.1805L152.815 45.7158H154.333L152.017 48.7039L154.483 52.7302H153.046L151.139 49.5142L150.54 50.2654V52.7302H149.321V45.72L149.317 45.7158Z" fill="white"/>
<path d="M162.471 52.4047C162.042 52.5735 161.204 52.8014 160.305 52.8014C159.167 52.8014 158.309 52.4975 157.669 51.8644C157.07 51.2736 156.722 50.3451 156.73 49.2858C156.73 47.0701 158.248 45.6436 160.471 45.6436C161.301 45.6436 161.949 45.8208 162.256 45.977L161.989 47.011C161.621 46.8422 161.171 46.7071 160.463 46.7071C159.026 46.7071 158.018 47.5934 158.018 49.2267C158.018 50.86 158.957 51.7674 160.354 51.7674C160.791 51.7674 161.123 51.7041 161.281 51.6197V49.8724H160.094V48.8637H162.471V52.4131V52.4047Z" fill="white"/>
<path d="M167.438 49.6194H164.904V51.679H167.738V52.7298H163.673V45.7197H167.584V46.7706H164.9V48.5812H167.434V49.6194H167.438Z" fill="white"/>
<path d="M168.758 52.7298V45.7197H170.155L171.892 48.7247C172.341 49.5054 172.73 50.32 173.042 51.0754H173.062C172.981 50.1427 172.953 49.2353 172.953 48.1633V45.7197H174.09V52.7298H172.823L171.066 49.6532C170.637 48.8808 170.187 48.0199 169.859 47.2264L169.827 47.2391C169.876 48.1422 169.888 49.0707 169.888 50.2229V52.7298H168.758Z" fill="white"/>
<path d="M179.215 49.6194H176.681V51.679H179.515V52.7298H175.45V45.7197H179.361V46.7706H176.677V48.5812H179.211V49.6194H179.215Z" fill="white"/>
<path d="M180.535 45.8124C180.993 45.728 181.685 45.6689 182.393 45.6689C183.361 45.6689 184.021 45.8335 184.47 46.2303C184.839 46.551 185.049 47.0406 185.049 47.6314C185.049 48.5346 184.458 49.1508 183.831 49.3914V49.4209C184.308 49.6108 184.6 50.1004 184.77 50.7756C184.98 51.6493 185.159 52.4596 185.3 52.7297H184.033C183.932 52.5229 183.774 51.9489 183.584 51.0753C183.393 50.1595 183.074 49.8683 182.377 49.8472H181.758V52.7297H180.539V45.8124H180.535ZM181.754 48.9102H182.482C183.308 48.9102 183.831 48.4544 183.831 47.7538C183.831 46.9857 183.312 46.6312 182.515 46.6312C182.126 46.6312 181.875 46.665 181.758 46.6945V48.9102H181.754Z" fill="white"/>
<path d="M187.58 50.742L187.001 52.7298H185.733L187.887 45.7197H189.454L191.64 52.7298H190.324L189.717 50.742H187.58ZM189.503 49.7755L188.972 48.0452C188.843 47.6189 188.733 47.142 188.632 46.7326H188.612C188.511 47.1378 188.414 47.6274 188.292 48.0452L187.774 49.7755H189.503Z" fill="white"/>
<path d="M192.523 45.7158H193.75V51.6582H196.515V52.7302H192.523V45.72V45.7158Z" fill="white"/>
<path d="M200.632 45.7158V48.5224H203.478V45.7158H204.705V52.7259H203.478V49.6366H200.632V52.7259H199.405V45.7158H200.632Z" fill="white"/>
<path d="M212.025 49.1509C212.025 51.5017 210.66 52.8438 208.802 52.8438C206.944 52.8438 205.709 51.3371 205.709 49.2733C205.709 47.2095 207.005 45.6016 208.903 45.6016C210.802 45.6016 212.025 47.1505 212.025 49.1509ZM207.005 49.2564C207.005 50.6829 207.693 51.814 208.871 51.814C210.049 51.814 210.729 50.6703 210.729 49.2016C210.729 47.8848 210.102 46.6313 208.871 46.6313C207.64 46.6313 207.005 47.8088 207.005 49.2522V49.2564Z" fill="white"/>
<path d="M212.996 51.3371C213.397 51.5777 213.996 51.7845 214.624 51.7845C215.413 51.7845 215.851 51.4004 215.851 50.8264C215.851 50.2947 215.51 49.9866 214.652 49.6616C213.543 49.2438 212.834 48.6276 212.834 47.6189C212.834 46.4752 213.753 45.6016 215.207 45.6016C215.936 45.6016 216.474 45.7704 216.826 45.9561L216.527 46.9901C216.288 46.8508 215.818 46.6567 215.191 46.6567C214.413 46.6567 214.073 47.0914 214.073 47.4965C214.073 48.0367 214.462 48.2857 215.361 48.6529C216.527 49.1087 217.097 49.7249 217.097 50.7336C217.097 51.8562 216.28 52.8354 214.543 52.8354C213.834 52.8354 213.098 52.6286 212.725 52.3964L212.992 51.3371H212.996Z" fill="white"/>
<path d="M218.154 45.8124C218.595 45.728 219.202 45.6689 220.032 45.6689C220.931 45.6689 221.587 45.8631 222.016 46.2429C222.413 46.5848 222.676 47.1377 222.676 47.7918C222.676 48.446 222.478 49.0073 222.097 49.3829C221.607 49.8936 220.842 50.1341 219.972 50.1341C219.741 50.1341 219.534 50.1257 219.372 50.0919V52.7339H218.154V45.8167V45.8124ZM219.368 49.0748C219.518 49.117 219.717 49.1297 219.968 49.1297C220.887 49.1297 221.445 48.6612 221.445 47.8382C221.445 47.0575 220.927 46.6396 220.081 46.6396C219.741 46.6396 219.502 46.6734 219.372 46.7029V49.0748H219.368Z" fill="white"/>
<path d="M224.903 45.7158V52.7259H223.676V45.7158H224.903Z" fill="white"/>
<path d="M227.547 46.7878H225.632V45.7158H230.713V46.7878H228.778V52.7259H227.547V46.7878Z" fill="white"/>
<path d="M232.065 50.742L231.486 52.7298H230.219L232.373 45.7197H233.939L236.126 52.7298H234.81L234.202 50.742H232.065ZM233.988 49.7755L233.458 48.0452C233.328 47.6189 233.219 47.142 233.117 46.7326H233.097C232.996 47.1378 232.899 47.6274 232.777 48.0452L232.259 49.7755H233.988Z" fill="white"/>
<path d="M237.008 45.7158H238.235V51.6582H241V52.7302H237.008V45.72V45.7158Z" fill="white"/>
<path d="M39.3718 35.6848C39.3718 35.6848 35.8172 46.2443 24.9348 46.5144C17.5544 46.6959 11.1739 41.8171 8.68815 34.5706C5.63557 25.0704 10.3521 14.5785 19.8944 9.62794C23.3964 7.88069 27.1089 6.9944 30.9347 6.9944C36.3031 6.9944 41.6431 8.75009 46.3717 12.0716L46.477 12.1475C47.5944 12.9747 47.8778 13.152 48.315 13.152C48.315 13.152 48.8211 13.1435 49.068 12.9241C49.319 12.7004 49.3595 12.4725 49.3595 12.4725C49.6672 11.7635 49.1571 11.2486 48.8535 10.9405C44.7645 6.82558 38.0885 4.09075 31.4125 3.79954C31.1169 3.7911 30.8173 3.78688 30.5258 3.78688C23.6879 3.78688 17.9876 5.82956 12.0889 10.8181C18.3358 4.81666 24.1494 2.7993 31.8497 2.25487C33.546 2.1367 35.9994 2.29285 37.1897 2.29285C38.7322 2.29285 38.5905 1.06471 37.4124 0.760843C35.0116 0.132 28.287 -1.02439 19.271 1.96366C10.7812 4.77024 4.40482 10.9363 1.53443 19.0986C-1.15784 26.7502 -0.291453 34.7605 3.99997 41.682C8.63957 48.7132 15.8014 52.7986 24.3316 52.9885C28.9591 53.094 32.3639 51.9376 36.0885 49.8527C42.3232 46.1599 45.7442 39.7195 45.9912 33.2496H39.9872C39.8617 34.0895 39.6674 34.8492 39.3718 35.6764V35.6848Z" fill="white"/>
<path d="M39.8293 18.882C37.712 17.0503 34.6756 15.206 30.5623 14.9232C28.2263 14.7629 26.4207 14.9443 24.9025 15.666C24.9025 15.666 23.445 16.3286 23.5948 16.987C23.777 17.7889 24.9915 17.8184 24.9915 17.8184C25.5178 17.7594 26.0522 17.7298 26.5826 17.7298C29.704 17.7298 32.623 18.7343 35.0318 20.6335C35.7079 21.161 36.3112 21.6759 36.8618 22.3132H39.8293V18.8862V18.882Z" fill="white"/>
<path fill-rule="evenodd" clip-rule="evenodd" d="M44.9709 23.6086V19.3291H41.0802V23.6086H36.9629V27.6729H41.0802V31.9524H44.9709V27.6729H49.0841V23.6086H44.9709Z" fill="white"/>
<path d="M22.6677 36.2317V23.7266H19.6313V28.6011H15.5099V23.7266H12.4775V36.2317H15.5099V31.0743H19.6313V36.2317H22.6677Z" fill="white"/>
<path d="M24.7202 23.7266V36.2317H27.7566V33.3618L29.6068 30.8L32.2464 36.2317H35.6472L31.6837 28.1918L34.8577 23.7266H31.8942L27.7566 29.6014V23.7266H24.7202Z" fill="white"/>
</g>
<defs>
<clipPath id="clip0_37_504">
<rect width="241" height="53" fill="white"/>
</clipPath>
</defs>
</svg>
