<svg width="201" height="43" viewBox="0 0 201 43" fill="none" xmlns="http://www.w3.org/2000/svg">
<g clip-path="url(#clip0_39_1244)">
<path d="M115.141 7.42521H109.725V5.30811H105.858V7.42521H100.446V10.6566H103.505C103.444 10.7005 103.387 10.7444 103.329 10.7916C101.975 11.9498 101.293 13.4152 101.293 15.1879C101.293 16.8526 101.996 18.2268 103.38 19.3141C104.653 20.3271 106.122 20.8302 107.793 20.8302C109.37 20.8302 110.788 20.3271 112.044 19.3141C113.435 18.2268 114.131 16.8526 114.131 15.1879C114.131 13.4152 113.462 11.9498 112.119 10.7916C112.065 10.7444 112.007 10.7005 111.946 10.6566H115.134V7.42521H115.141ZM109.654 17.17C109.103 17.7474 108.441 18.0344 107.665 18.0344C106.888 18.0344 106.179 17.7474 105.629 17.17C105.095 16.6263 104.832 15.9679 104.832 15.1879C104.832 14.4079 105.095 13.7056 105.629 13.1248C106.179 12.5643 106.858 12.2841 107.665 12.2841C108.472 12.2841 109.103 12.5643 109.654 13.1248C110.218 13.7056 110.505 14.3944 110.505 15.1879C110.505 15.9814 110.221 16.6061 109.654 17.17Z" fill="#003478"/>
<path d="M105.963 21.9409H102.327V28.3766C102.327 29.1364 102.482 29.68 102.789 30.0041C103.049 30.2743 103.478 30.4127 104.079 30.4127H121.712V27.0193H105.963V21.9409Z" fill="#003478"/>
<path d="M121.536 7.34766H117.903V23.8557H121.536V16.5454H124.477V13.1283H121.536V7.34766Z" fill="#003478"/>
<path d="M148.255 7.34766H127.84V10.7343H144.621V14.8335H127.09V18.2269H136.268V21.3199H127.84V24.7133H144.621V30.521H148.255V21.3199H139.877V18.2269H149.342V14.8335H148.255V7.34766Z" fill="#003478"/>
<path d="M174.396 18.8651V7.34766H170.763V9.08321H166.947V7.34766H163.361V10.1063H157.591V7.34766H153.978V16.829C153.978 17.5888 154.123 18.129 154.414 18.4565C154.69 18.73 155.123 18.8685 155.71 18.8685H162.551C162.058 19.1454 161.592 19.483 161.15 19.895C159.62 21.2827 158.857 23.0419 158.857 25.1556C158.857 27.2694 159.62 29.0387 161.15 30.4501C162.578 31.7703 164.27 32.4321 166.228 32.4321C168.187 32.4321 169.865 31.7737 171.31 30.4501C172.87 29.0387 173.653 27.2727 173.653 25.1556C173.653 23.0385 172.87 21.2827 171.31 19.895C169.99 18.6997 168.477 18.0514 166.779 17.9332C166.887 17.636 166.944 17.2747 166.944 16.829V16.775H170.76V18.8685H174.393L174.396 18.8651ZM157.591 15.5561V13.1182H163.361V15.5561H157.591ZM168.808 22.4949C169.564 23.2209 169.942 24.1089 169.942 25.1556C169.942 26.2024 169.564 27.0904 168.808 27.8197C168.085 28.5255 167.234 28.88 166.255 28.88C165.276 28.88 164.452 28.5255 163.733 27.8197C162.973 27.0938 162.595 26.2058 162.595 25.1556C162.595 24.1055 162.973 23.2209 163.733 22.4949C164.452 21.8061 165.293 21.4651 166.255 21.4651C167.218 21.4651 168.085 21.8095 168.808 22.4949ZM166.947 13.8813V11.9769H170.763V13.8813H166.947Z" fill="#003478"/>
<path d="M192.339 23.4365H196.57V25.2565H200.23V7.34717H196.597V20.3976H192.339V23.4365Z" fill="#003478"/>
<path d="M190.12 15.9542C190.441 15.7719 190.755 15.5591 191.059 15.3126C192.41 14.2592 193.088 12.922 193.088 11.308C193.088 9.57924 192.433 8.15771 191.133 7.03331C189.931 5.97645 188.53 5.44971 186.923 5.44971C185.316 5.44971 183.806 5.97645 182.587 7.03331C181.264 8.15771 180.605 9.57924 180.605 11.308C180.605 12.9254 181.284 14.2592 182.638 15.3126C182.945 15.5558 183.263 15.7719 183.594 15.9542H179.278V19.1484H186.345V24.1052H189.854V19.1484H194.412V15.9542H190.12ZM188.729 13.2327C188.189 13.7966 187.551 14.0734 186.801 14.0734C186.011 14.0734 185.356 13.7966 184.819 13.2327C184.303 12.7026 184.043 12.061 184.043 11.308C184.043 10.5551 184.303 9.86625 184.819 9.30236C185.353 8.75874 186.011 8.48524 186.801 8.48524C187.591 8.48524 188.192 8.75874 188.729 9.30236C189.28 9.86625 189.557 10.5314 189.557 11.308C189.557 12.0408 189.283 12.6857 188.729 13.2327Z" fill="#003478"/>
<path d="M184.606 27.0193V21.1846H181.021V28.38C181.021 29.1398 181.172 29.6834 181.486 30.0075C181.757 30.2777 182.196 30.4161 182.797 30.4161H200.405V27.0226H184.603L184.606 27.0193Z" fill="#003478"/>
<path d="M66.9503 10.724H63.7764V13.9588H66.9503V18.8548H70.5599V7.33057H66.9503V10.724Z" fill="#003478"/>
<path d="M85.7883 14.3739C86.5413 15.4646 88.0303 16.2885 90.2656 16.849C91.8864 17.2643 93.7705 17.5108 95.9214 17.5817V14.1612C93.6185 14.0869 91.7682 13.7594 90.3669 13.1786C88.8677 12.5641 88.0911 11.7301 88.0405 10.68H95.918V7.27979H75.6519V10.68H83.5057C83.472 11.7639 82.7055 12.6181 81.2063 13.2327C79.8219 13.7965 77.9716 14.1139 75.6519 14.1849V17.5851C77.7352 17.4939 79.5923 17.2474 81.2299 16.8523C83.499 16.2918 85.0151 15.4679 85.7849 14.3773L85.7883 14.3739Z" fill="#003478"/>
<path d="M74.6318 19.8374V23.2342H83.9714V30.5985H87.5776V23.2342H96.9408V19.8374H74.6318Z" fill="#003478"/>
<path d="M63.2125 17.9871V15.2284C61.8957 14.9819 60.7612 14.6037 60.0487 13.8474C59.2991 13.0505 58.6339 11.8012 58.5731 10.562H63.1079V7.40491H58.3604V5.30469H54.4841V7.40491H49.7941V10.562H54.1161C54.0688 12.0409 53.4239 13.2632 52.7688 13.8474C52.0159 14.5227 50.986 14.9819 49.686 15.2284V18.8852C50.9522 18.8076 52.1982 18.4328 53.4306 17.7574C54.7678 17.0281 55.7672 15.9037 56.4358 14.7591C57.0672 15.9003 58.0194 17.0146 59.2822 17.7304C59.603 17.9128 59.9238 18.0715 60.2547 18.2099C57.155 19.0743 54.8893 21.8667 54.8893 25.1791C54.8893 29.1837 58.2051 32.4252 62.2907 32.4252C66.3764 32.4252 69.6888 29.1837 69.6888 25.1791C69.6888 21.4818 66.866 18.4294 63.2092 17.9871H63.2125ZM64.8333 27.8297C64.1107 28.5321 63.2564 28.89 62.2806 28.89C61.3048 28.89 60.4775 28.5354 59.7549 27.8297C58.9952 27.1004 58.617 26.2157 58.617 25.1656C58.617 24.1155 58.9952 23.2309 59.7549 22.5083C60.4775 21.8195 61.3183 21.4717 62.2806 21.4717C63.2429 21.4717 64.1141 21.8161 64.8333 22.5083C65.5896 23.2309 65.9644 24.1189 65.9644 25.1656C65.9644 26.2124 65.5896 27.1004 64.8333 27.8297Z" fill="#003478"/>
<path d="M54.0419 42.0181C53.7987 42.1464 53.2686 42.2679 52.5933 42.2679C50.8105 42.2679 49.73 41.1537 49.73 39.4451C49.73 37.5982 51.0131 36.4839 52.725 36.4839C53.4003 36.4839 53.8832 36.6257 54.0891 36.7338L53.8663 37.5475C53.5995 37.4327 53.2349 37.3314 52.7689 37.3314C51.6276 37.3314 50.8037 38.0472 50.8037 39.3945C50.8037 40.6269 51.5263 41.417 52.7588 41.417C53.1741 41.417 53.6063 41.3326 53.873 41.2077L54.0385 42.0147L54.0419 42.0181Z" fill="#003478"/>
<path d="M55.8922 36.5752V38.8206H58.266V36.5752H59.2891V42.1837H58.266V39.712H55.8922V42.1837H54.8691V36.5752H55.8922Z" fill="#003478"/>
<path d="M63.5538 39.6986H61.4401V41.3463H63.8036V42.1871H60.4136V36.5786H63.6787V37.4194H61.4401V38.8679H63.5538V39.6986Z" fill="#003478"/>
<path d="M69.6346 39.3236C69.6346 41.2043 68.4967 42.2781 66.9469 42.2781C65.397 42.2781 64.3672 41.0726 64.3672 39.4215C64.3672 37.7704 65.4477 36.4839 67.0313 36.4839C68.6149 36.4839 69.6346 37.7231 69.6346 39.3236ZM65.4477 39.408C65.4477 40.5493 66.0217 41.4542 67.0043 41.4542C67.9869 41.4542 68.5541 40.5391 68.5541 39.3641C68.5541 38.3106 68.0308 37.3078 67.0043 37.3078C65.9778 37.3078 65.4477 38.2498 65.4477 39.4046V39.408Z" fill="#003478"/>
<path d="M70.4722 42.1871V36.5786H71.6371L73.0856 38.9827C73.4604 39.6074 73.7846 40.2591 74.0446 40.8635H74.0615C73.9939 40.1172 73.9703 39.3913 73.9703 38.5336V36.5786H74.9191V42.1871H73.8622L72.3968 39.7256C72.0389 39.1077 71.6641 38.4188 71.3906 37.784L71.3636 37.7942C71.4041 38.5168 71.4142 39.2596 71.4142 40.1814V42.1871H70.4722Z" fill="#003478"/>
<path d="M80.5478 41.9268C80.1899 42.0619 79.491 42.2442 78.7414 42.2442C77.7926 42.2442 77.0767 42.0011 76.5432 41.4946C76.0435 41.0219 75.7531 40.2791 75.7599 39.4316C75.7599 37.6589 77.0261 36.5176 78.8798 36.5176C79.572 36.5176 80.1123 36.6594 80.3689 36.7843L80.146 37.6116C79.8388 37.4765 79.464 37.3685 78.8731 37.3685C77.6744 37.3685 76.8336 38.0775 76.8336 39.3843C76.8336 40.691 77.617 41.417 78.7819 41.417C79.1466 41.417 79.4235 41.3663 79.5551 41.2988V39.9009H78.5658V39.0939H80.5478V41.9336V41.9268Z" fill="#003478"/>
<path d="M82.6652 36.5752H83.6883V40.2117C83.6883 41.7582 82.9387 42.2748 81.8244 42.2748C81.5408 42.2748 81.1829 42.2275 80.9668 42.1431L81.0917 41.3192C81.2572 41.3665 81.4834 41.4171 81.7231 41.4171C82.3073 41.4171 82.6652 41.1504 82.6652 40.1779V36.5718V36.5752Z" fill="#003478"/>
<path d="M85.7848 36.5752V39.8471C85.7848 40.9445 86.244 41.4543 86.9328 41.4543C87.6757 41.4543 88.1146 40.9478 88.1146 39.8471V36.5752H89.1377V39.7796C89.1377 41.5117 88.2463 42.2748 86.8991 42.2748C85.5518 42.2748 84.7617 41.5522 84.7617 39.7863V36.5752H85.7848Z" fill="#003478"/>
<path d="M92.9704 36.5752V38.8206H95.3441V36.5752H96.3672V42.1837H95.3441V39.712H92.9704V42.1837H91.9473V36.5752H92.9704Z" fill="#003478"/>
<path d="M98.6193 40.5967L98.1365 42.1871H97.0796L98.8759 36.5786H100.183L102.006 42.1871H100.909L100.402 40.5967H98.6193ZM100.223 39.8235L99.7808 38.4391C99.6728 38.0981 99.5816 37.7165 99.4972 37.389H99.4803C99.3959 37.7131 99.3149 38.1048 99.2136 38.4391L98.7814 39.8235H100.223Z" fill="#003478"/>
<path d="M102.742 42.1871V36.5786H103.907L105.356 38.9827C105.73 39.6074 106.055 40.2591 106.315 40.8635H106.331C106.264 40.1172 106.24 39.3913 106.24 38.5336V36.5786H107.189V42.1871H106.132L104.667 39.7256C104.309 39.1077 103.934 38.4188 103.661 37.784L103.634 37.7942C103.674 38.5168 103.684 39.2596 103.684 40.1814V42.1871H102.742Z" fill="#003478"/>
<path d="M108.323 36.5752H109.34V39.1549H109.367C109.498 38.9388 109.64 38.7396 109.775 38.5471L111.241 36.5752H112.507L110.575 38.9658L112.632 42.187H111.433L109.843 39.6141L109.343 40.2151V42.187H108.327V36.5786L108.323 36.5752Z" fill="#003478"/>
<path d="M117.883 39.3236C117.883 41.2043 116.741 42.2781 115.195 42.2781C113.648 42.2781 112.615 41.0726 112.615 39.4215C112.615 37.7704 113.696 36.4839 115.279 36.4839C116.863 36.4839 117.883 37.7231 117.883 39.3236ZM113.696 39.408C113.696 40.5493 114.27 41.4542 115.252 41.4542C116.235 41.4542 116.802 40.5391 116.802 39.3641C116.802 38.3106 116.279 37.3078 115.252 37.3078C114.226 37.3078 113.696 38.2498 113.696 39.4046V39.408Z" fill="#003478"/>
<path d="M123.697 39.3236C123.697 41.2043 122.556 42.2781 121.009 42.2781C119.463 42.2781 118.43 41.0726 118.43 39.4215C118.43 37.7704 119.51 36.4839 121.094 36.4839C122.677 36.4839 123.697 37.7231 123.697 39.3236ZM119.51 39.408C119.51 40.5493 120.084 41.4542 121.067 41.4542C122.049 41.4542 122.613 40.5391 122.613 39.3641C122.613 38.3106 122.09 37.3078 121.067 37.3078C120.044 37.3078 119.51 38.2498 119.51 39.4046V39.408Z" fill="#003478"/>
<path d="M124.534 36.5752H125.551V39.1549H125.578C125.709 38.9388 125.851 38.7396 125.986 38.5471L127.452 36.5752H128.718L126.786 38.9658L128.843 42.187H127.644L126.054 39.6141L125.554 40.2151V42.187H124.538V36.5786L124.534 36.5752Z" fill="#003478"/>
<path d="M135.505 41.9268C135.147 42.0619 134.448 42.2442 133.698 42.2442C132.75 42.2442 132.034 42.0011 131.5 41.4946C131.001 41.0219 130.71 40.2791 130.717 39.4316C130.717 37.6589 131.983 36.5176 133.837 36.5176C134.529 36.5176 135.069 36.6594 135.326 36.7843L135.103 37.6116C134.796 37.4765 134.421 37.3685 133.83 37.3685C132.631 37.3685 131.791 38.0775 131.791 39.3843C131.791 40.691 132.574 41.417 133.739 41.417C134.104 41.417 134.38 41.3663 134.512 41.2988V39.9009H133.523V39.0939H135.505V41.9336V41.9268Z" fill="#003478"/>
<path d="M139.648 39.6986H137.534V41.3463H139.898V42.1871H136.508V36.5786H139.77V37.4194H137.531V38.8679H139.645V39.6986H139.648Z" fill="#003478"/>
<path d="M140.749 42.1871V36.5786H141.913L143.362 38.9827C143.737 39.6074 144.061 40.2591 144.321 40.8635H144.338C144.27 40.1172 144.247 39.3913 144.247 38.5336V36.5786H145.195V42.1871H144.139L142.673 39.7256C142.315 39.1077 141.94 38.4188 141.667 37.784L141.64 37.7942C141.68 38.5168 141.691 39.2596 141.691 40.1814V42.1871H140.749Z" fill="#003478"/>
<path d="M149.47 39.6986H147.357V41.3463H149.72V42.1871H146.33V36.5786H149.592V37.4194H147.353V38.8679H149.467V39.6986H149.47Z" fill="#003478"/>
<path d="M150.571 36.6529C150.952 36.5854 151.53 36.5381 152.121 36.5381C152.928 36.5381 153.478 36.6698 153.853 36.9872C154.16 37.2438 154.336 37.6355 154.336 38.1082C154.336 38.8308 153.843 39.3237 153.319 39.5162V39.5398C153.718 39.6918 153.961 40.0835 154.103 40.6237C154.278 41.3227 154.427 41.971 154.545 42.1871H153.488C153.404 42.0216 153.272 41.5624 153.113 40.8635C152.955 40.1307 152.688 39.8978 152.107 39.8809H151.591V42.1871H150.574V36.6529H150.571ZM151.587 39.1313H152.195C152.884 39.1313 153.319 38.7666 153.319 38.2061C153.319 37.5916 152.887 37.3079 152.222 37.3079C151.898 37.3079 151.688 37.335 151.591 37.3586V39.1313H151.587Z" fill="#003478"/>
<path d="M156.446 40.5967L155.964 42.1871H154.907L156.703 36.5786H158.01L159.833 42.1871H158.736L158.229 40.5967H156.446ZM158.05 39.8235L157.608 38.4391C157.5 38.0981 157.409 37.7165 157.324 37.389H157.307C157.223 37.7131 157.142 38.1048 157.041 38.4391L156.609 39.8235H158.05Z" fill="#003478"/>
<path d="M160.569 36.5752H161.592V41.3294H163.898V42.187H160.569V36.5786V36.5752Z" fill="#003478"/>
<path d="M167.332 36.5752V38.8206H169.706V36.5752H170.729V42.1837H169.706V39.712H167.332V42.1837H166.309V36.5752H167.332Z" fill="#003478"/>
<path d="M176.834 39.3236C176.834 41.2043 175.696 42.2781 174.146 42.2781C172.596 42.2781 171.566 41.0726 171.566 39.4215C171.566 37.7704 172.647 36.4839 174.231 36.4839C175.814 36.4839 176.834 37.7231 176.834 39.3236ZM172.647 39.408C172.647 40.5493 173.221 41.4542 174.204 41.4542C175.186 41.4542 175.753 40.5391 175.753 39.3641C175.753 38.3106 175.23 37.3078 174.204 37.3078C173.177 37.3078 172.647 38.2498 172.647 39.4046V39.408Z" fill="#003478"/>
<path d="M177.644 41.0726C177.978 41.2651 178.478 41.4305 179.002 41.4305C179.66 41.4305 180.025 41.1233 180.025 40.6641C180.025 40.2386 179.741 39.9921 179.025 39.7321C178.1 39.3979 177.509 38.9049 177.509 38.0979C177.509 37.1828 178.276 36.4839 179.488 36.4839C180.096 36.4839 180.545 36.6189 180.838 36.7675L180.589 37.5948C180.389 37.4833 179.998 37.328 179.474 37.328C178.826 37.328 178.542 37.6758 178.542 38C178.542 38.4322 178.867 38.6314 179.616 38.9251C180.589 39.2898 181.065 39.7828 181.065 40.5898C181.065 41.488 180.383 42.2713 178.934 42.2713C178.343 42.2713 177.729 42.1059 177.418 41.9202L177.641 41.0726H177.644Z" fill="#003478"/>
<path d="M181.946 36.6529C182.314 36.5854 182.82 36.5381 183.513 36.5381C184.262 36.5381 184.809 36.6934 185.167 36.9973C185.498 37.2708 185.717 37.7131 185.717 38.2365C185.717 38.7599 185.552 39.2089 185.235 39.5095C184.826 39.918 184.188 40.1105 183.462 40.1105C183.269 40.1105 183.097 40.1037 182.962 40.0767V42.1904H181.946V36.6563V36.6529ZM182.959 39.263C183.084 39.2967 183.249 39.3069 183.459 39.3069C184.225 39.3069 184.691 38.9321 184.691 38.2736C184.691 37.649 184.259 37.3147 183.553 37.3147C183.269 37.3147 183.07 37.3417 182.962 37.3653V39.263H182.959Z" fill="#003478"/>
<path d="M187.575 36.5752V42.1837H186.552V36.5752H187.575Z" fill="#003478"/>
<path d="M189.78 37.4328H188.183V36.5752H192.42V37.4328H190.806V42.1837H189.78V37.4328Z" fill="#003478"/>
<path d="M193.548 40.5967L193.065 42.1871H192.008L193.805 36.5786H195.111L196.935 42.1871H195.837L195.331 40.5967H193.548ZM195.152 39.8235L194.71 38.4391C194.602 38.0981 194.51 37.7165 194.426 37.389H194.409C194.325 37.7131 194.244 38.1048 194.142 38.4391L193.71 39.8235H195.152Z" fill="#003478"/>
<path d="M197.671 36.5752H198.694V41.3294H201V42.187H197.671V36.5786V36.5752Z" fill="#003478"/>
<path d="M32.837 28.549C32.837 28.549 29.8724 36.9971 20.7962 37.2132C14.6407 37.3584 9.31926 33.4551 7.24605 27.6576C4.70013 20.0569 8.63382 11.6628 16.5924 7.70209C19.5131 6.30419 22.6094 5.59512 25.8003 5.59512C30.2776 5.59512 34.7313 6.99977 38.6751 9.65712L38.7629 9.7179C39.6948 10.3797 39.9312 10.5215 40.2958 10.5215C40.2958 10.5215 40.7179 10.5148 40.9239 10.3392C41.1332 10.1602 41.167 9.97789 41.167 9.97789C41.4236 9.41063 40.9982 8.99869 40.7449 8.7522C37.3346 5.46005 31.7666 3.27204 26.1987 3.03906C25.9522 3.03231 25.7023 3.02893 25.4592 3.02893C19.7562 3.02893 15.002 4.66318 10.0824 8.65428C15.2924 3.85281 20.1411 2.23881 26.5634 1.80324C27.9781 1.70869 30.0243 1.83363 31.0171 1.83363C32.3035 1.83363 32.1853 0.851046 31.2028 0.607934C29.2005 0.104826 23.592 -0.820352 16.0724 1.57025C8.99174 3.81567 3.67365 8.74883 1.27967 15.2791C-0.965744 21.4008 -0.24316 27.8095 3.336 33.3471C7.20554 38.9724 13.1787 42.2409 20.2931 42.3929C24.1525 42.4773 26.9922 41.5521 30.0986 39.8841C35.2985 36.9296 38.1517 31.777 38.3577 26.6007H33.3503C33.2456 27.2726 33.0835 27.8804 32.837 28.5422V28.549Z" fill="url(#paint0_linear_39_1244)"/>
<path d="M33.2185 15.1065C31.4525 13.6411 28.9201 12.1655 25.4895 11.9393C23.5412 11.811 22.0353 11.9562 20.7691 12.5336C20.7691 12.5336 19.5535 13.0637 19.6784 13.5904C19.8304 14.232 20.8434 14.2556 20.8434 14.2556C21.2823 14.2083 21.728 14.1847 22.1703 14.1847C24.7737 14.1847 27.2082 14.9883 29.2172 16.5078C29.7811 16.9298 30.2842 17.3418 30.7434 17.8516H33.2185V15.1099V15.1065Z" fill="url(#paint1_linear_39_1244)"/>
<path fill-rule="evenodd" clip-rule="evenodd" d="M37.507 18.8887V15.4648H34.2621V18.8887H30.8281V22.1403H34.2621V25.5641H37.507V22.1403H40.9376V18.8887H37.507Z" fill="#003478"/>
<path d="M18.9055 28.9882V18.9834H16.3731V22.8833H12.9358V18.9834H10.4067V28.9882H12.9358V24.862H16.3731V28.9882H18.9055Z" fill="#003478"/>
<path d="M20.6177 18.9834V28.9882H23.1501V26.6921L24.6932 24.6425L26.8947 28.9882H29.731L26.4254 22.5558L29.0726 18.9834H26.6009L23.1501 23.6836V18.9834H20.6177Z" fill="#003478"/>
</g>
<defs>
<linearGradient id="paint0_linear_39_1244" x1="-11.2946" y1="-12.0305" x2="75.6046" y2="74.872" gradientUnits="userSpaceOnUse">
<stop stop-color="#25BCEF"/>
<stop offset="0.06" stop-color="#22B8E0"/>
<stop offset="0.45" stop-color="#0FA387"/>
<stop offset="0.72" stop-color="#04964F"/>
<stop offset="0.85" stop-color="#00913A"/>
</linearGradient>
<linearGradient id="paint1_linear_39_1244" x1="-5.64577" y1="-17.6799" x2="81.2534" y2="69.2227" gradientUnits="userSpaceOnUse">
<stop stop-color="#25BCEF"/>
<stop offset="0.06" stop-color="#22B8E0"/>
<stop offset="0.45" stop-color="#0FA387"/>
<stop offset="0.72" stop-color="#04964F"/>
<stop offset="0.85" stop-color="#00913A"/>
</linearGradient>
<clipPath id="clip0_39_1244">
<rect width="201" height="42.4029" fill="white"/>
</clipPath>
</defs>
</svg>
