<svg width="190" height="169" viewBox="0 0 190 169" fill="none" xmlns="http://www.w3.org/2000/svg">
<rect width="190" height="169" rx="5" fill="#030E21"/>
<path fill-rule="evenodd" clip-rule="evenodd" d="M87.72 108.726V159.4H101.4V112.776C99.0597 111.89 95.9264 126.938 92 125.92C90.497 125.522 89.0703 109.124 87.72 108.726Z" fill="white"/>
<path fill-rule="evenodd" clip-rule="evenodd" d="M95.72 147.72C90.12 147.72 85.08 146.76 80.6 144.84C76.12 142.84 72.6 140.04 70.04 136.44C67.48 132.84 66.2 128.64 66.2 123.84H80.84C81.16 127.44 82.56 130.4 85.04 132.72C87.6 135.04 91.16 136.2 95.72 136.2C100.44 136.2 104.12 135.08 106.76 132.84C109.4 130.52 110.72 127.56 110.72 123.96C110.72 121.16 109.88 118.88 108.2 117.12C106.6 115.36 104.56 114 102.08 113.04C101.861 112.953 101.635 112.864 101.4 112.776V99.8327C105.602 101.075 109.108 102.318 111.92 103.56C115.44 105.08 118.4 107.44 120.8 110.64C123.28 113.76 124.52 117.96 124.52 123.24C124.52 127.48 123.36 131.48 121.04 135.24C118.8 139 115.48 142.04 111.08 144.36C106.76 146.6 101.64 147.72 95.72 147.72Z" fill="#CCCFD6"/>
<path d="M87.72 95.4874V108.726C84.1829 107.684 81.1696 106.642 78.68 105.6C75.32 104.08 72.44 101.76 70.04 98.64C67.64 95.52 66.44 91.36 66.44 86.16C66.44 81.36 67.64 77.16 70.04 73.56C72.44 69.96 75.8 67.2 80.12 65.28C82.4547 64.2424 84.9881 63.4851 87.72 63.0082V74.9995C86.3708 75.491 85.1574 76.1711 84.08 77.04C81.6 79.04 80.36 81.92 80.36 85.68C80.36 88.24 81.12 90.36 82.64 92.04C84.031 93.431 85.7243 94.5802 87.72 95.4874Z" fill="#CCCFD6"/>
<path fill-rule="evenodd" clip-rule="evenodd" d="M87.72 63.0082C90.0431 62.6028 92.5097 62.4 95.12 62.4C97.3234 62.4 99.4167 62.5517 101.4 62.8551V75.5719C99.2238 74.5506 96.6505 74.04 93.68 74.04C91.4631 74.04 89.4764 74.3599 87.72 74.9995V63.0082Z" fill="#CCCFD6"/>
<path fill-rule="evenodd" clip-rule="evenodd" d="M98.48 115C99.488 115.278 100.461 99.5552 101.4 99.8327V112.776C99.0597 111.89 95.9264 126.938 92 125.92C90.497 125.522 89.0703 109.124 87.72 108.726V95.4874C88.0198 95.6238 88.3265 111.755 88.64 111.88C91.04 112.84 94.32 113.88 98.48 115Z" fill="white"/>
<path fill-rule="evenodd" clip-rule="evenodd" d="M93.68 74.04C96.6505 74.04 99.2238 74.5506 101.4 75.5719V99.8327C100.461 99.5552 99.488 115.278 98.48 115C94.32 113.88 91.04 112.84 88.64 111.88C88.3265 111.755 88.0198 95.6238 87.72 95.4874V74.9995C89.4764 74.3599 91.4631 74.04 93.68 74.04Z" fill="white"/>
<path fill-rule="evenodd" clip-rule="evenodd" d="M129 10L101.4 63.16V62.8551C99.4167 62.5517 97.3234 62.4 95.12 62.4C92.5097 62.4 90.0431 62.6028 87.72 63.0082V63.16L60 10H75.24L94.56 50.92L113.88 10H129Z" fill="white"/>
<path fill-rule="evenodd" clip-rule="evenodd" d="M101.4 75.5719V62.8551C106.69 63.6643 111.196 65.5526 114.92 68.52C120.12 72.52 123 78.04 123.56 85.08H108.44C108.2 82.04 106.76 79.44 104.12 77.28C103.295 76.6053 102.389 76.0359 101.4 75.5719Z" fill="#CCCFD6"/>
</svg>
