<svg width="37" height="31" viewBox="0 0 37 31" fill="none" xmlns="http://www.w3.org/2000/svg">
<g clip-path="url(#clip0_22_175)">
<path fill-rule="evenodd" clip-rule="evenodd" d="M22.5301 6.97591H7.25801C4.51268 7.1881 4.94307 10.9147 6.97109 10.8882C8.84913 10.8551 12.0053 10.8882 14.242 10.8882C11.0271 13.9716 3.84754 18.6465 0.710955 21.6835C-0.508466 22.8572 -0.430215 26.2788 3.09763 25.4831C4.43443 24.7338 10.4729 19.7273 11.2945 18.8719C11.7118 29.5147 23.4887 34.5079 32.3377 28.2615C37.0393 24.9327 38.663 16.5047 34.9787 12.347C32.0768 9.05141 26.7948 5.74917 20.4695 0.391307C19.4653 -0.450832 16.4461 -0.0198159 17.4633 2.48671C17.4633 2.48671 20.15 5.21869 22.5236 6.97591H22.5301ZM24.0756 10.7158C28.4316 10.7158 32.0051 13.9849 32.0051 17.9569C32.0051 21.9288 28.4316 25.1979 24.0756 25.1979C19.7196 25.1979 16.1461 21.962 16.1461 17.9569C16.1461 13.9517 19.687 10.7158 24.0756 10.7158Z" fill="#F29433"/>
<path fill-rule="evenodd" clip-rule="evenodd" d="M24.3558 13.0498C27.062 13.0498 29.2726 15.1651 29.2726 17.7578C29.2726 20.3506 27.062 22.4658 24.3558 22.4658C21.6496 22.4658 19.439 20.3506 19.439 17.7578C19.439 15.1651 21.6496 13.0498 24.3558 13.0498Z" fill="#0069A2"/>
</g>
<defs>
<clipPath id="clip0_22_175">
<rect width="37" height="31" fill="white"/>
</clipPath>
</defs>
</svg>
