<svg width="43" height="43" viewBox="0 0 43 43" fill="none" xmlns="http://www.w3.org/2000/svg">
<path d="M7.16663 35.8333C7.16663 33.9326 7.92168 32.1097 9.26569 30.7657C10.6097 29.4217 12.4326 28.6666 14.3333 28.6666H21.5V35.8333C21.5 37.734 20.7449 39.5569 19.4009 40.9009C18.0569 42.2449 16.234 43 14.3333 43C12.4326 43 10.6097 42.2449 9.26569 40.9009C7.92168 39.5569 7.16663 37.734 7.16663 35.8333Z" fill="#24CB71"/>
<path d="M21.5 0V14.3333H28.6667C30.5674 14.3333 32.3903 13.5783 33.7343 12.2343C35.0783 10.8903 35.8333 9.06739 35.8333 7.16667C35.8333 5.26595 35.0783 3.44308 33.7343 2.09907C32.3903 0.755058 30.5674 0 28.6667 0L21.5 0Z" fill="#FF7237"/>
<path d="M28.6076 28.6667C30.5083 28.6667 32.3312 27.9117 33.6752 26.5676C35.0192 25.2236 35.7742 23.4008 35.7742 21.5C35.7742 19.5993 35.0192 17.7765 33.6752 16.4324C32.3312 15.0884 30.5083 14.3334 28.6076 14.3334C26.7069 14.3334 24.884 15.0884 23.54 16.4324C22.196 17.7765 21.4409 19.5993 21.4409 21.5C21.4409 23.4008 22.196 25.2236 23.54 26.5676C24.884 27.9117 26.7069 28.6667 28.6076 28.6667Z" fill="#00B6FF"/>
<path d="M7.16663 7.16667C7.16663 9.06739 7.92168 10.8903 9.26569 12.2343C10.6097 13.5783 12.4326 14.3333 14.3333 14.3333H21.5V0H14.3333C12.4326 0 10.6097 0.755058 9.26569 2.09907C7.92168 3.44308 7.16663 5.26595 7.16663 7.16667Z" fill="#FF3737"/>
<path d="M7.16663 21.5C7.16663 23.4008 7.92168 25.2236 9.26569 26.5676C10.6097 27.9117 12.4326 28.6667 14.3333 28.6667H21.5V14.3334H14.3333C12.4326 14.3334 10.6097 15.0884 9.26569 16.4324C7.92168 17.7765 7.16663 19.5993 7.16663 21.5Z" fill="#874FFF"/>
</svg>
