<svg width="35" height="38" viewBox="0 0 35 38" fill="none" xmlns="http://www.w3.org/2000/svg">
<path d="M14.9891 5.80066C18.0417 5.80066 21.0897 5.80066 24.1422 5.80066C24.1198 6.66218 24.1781 7.54175 24.1153 8.39425C22.2686 8.40779 20.4173 8.39425 18.5706 8.39425C18.5706 9.54446 18.5616 10.6947 18.5751 11.8449C20.1439 11.8404 21.7127 11.8449 23.2816 11.8449V14.3979C21.7083 14.3979 20.1394 14.3979 18.5706 14.3979V20.221C17.3738 20.221 16.1815 20.221 14.9891 20.221V5.80066Z" fill="white"/>
<path d="M12.3535 29.0979C12.9855 28.5205 13.9313 28.4393 14.7247 28.6649C15.2178 28.8047 15.7019 29.1655 15.796 29.6978C15.8319 30.009 15.8632 30.3654 15.6705 30.636C15.4733 30.9247 15.1371 31.078 14.8099 31.1592C15.294 31.2539 15.8184 31.5291 15.9574 32.0433C16.047 32.5395 16.0291 33.1213 15.6705 33.5183C15.2447 34.0054 14.5723 34.1768 13.9448 34.1949C13.389 34.1858 12.8018 34.0911 12.358 33.7303C12.0173 33.4641 11.847 33.0356 11.7618 32.6252C12.1832 32.5846 12.609 32.6161 13.0348 32.6026C13.1335 33.2296 13.9582 33.41 14.4199 33.0627C14.6889 32.8372 14.6799 32.4222 14.5947 32.111C14.3572 31.6238 13.7341 31.6825 13.2859 31.687C13.2859 31.3802 13.2859 31.0735 13.2859 30.7668C13.5907 30.7578 13.9134 30.8074 14.2003 30.6766C14.5409 30.5142 14.5589 30.0271 14.402 29.7294C14.0389 29.2918 13.1783 29.5038 13.1424 30.1128C12.7166 30.1128 12.2908 30.1128 11.8649 30.1128C11.9277 29.7339 12.0711 29.355 12.3625 29.0979" fill="white"/>
<path d="M17.5218 28.8362C18.1986 28.4754 19.0323 28.4844 19.7406 28.7415C20.2919 28.94 20.6729 29.4903 20.6819 30.0812C20.2874 30.0812 19.8975 30.0812 19.503 30.0812C19.4223 29.4542 18.5393 29.3595 18.1493 29.7429C17.858 30.0947 17.97 30.5818 17.9476 31.0013C18.6693 30.3067 20.0454 30.4285 20.5743 31.3081C20.8119 31.6915 20.8163 32.1651 20.7894 32.6026C20.7446 33.2341 20.2964 33.7889 19.7182 34.0189C19.0413 34.2896 18.2479 34.2805 17.58 33.9783C17.0197 33.7212 16.6432 33.1394 16.6163 32.5214C16.6029 31.8268 16.6163 31.1366 16.6163 30.442C16.6253 29.8015 16.9525 29.152 17.5218 28.8453M17.9521 31.8854C17.97 32.2237 17.8804 32.6026 18.0686 32.9138C18.3286 33.2657 18.8755 33.2747 19.2116 33.0401C19.5164 32.7785 19.4851 32.3274 19.4402 31.9666C19.3954 31.6418 19.0458 31.4614 18.7455 31.511C18.4362 31.511 18.1628 31.6779 17.9476 31.8899" fill="white"/>
<path d="M22.9858 28.6198C23.6537 28.4935 24.3933 28.5431 24.9715 28.9265C25.487 29.2738 25.7021 29.9234 25.6932 30.5278C25.6842 31.1863 25.7111 31.8494 25.6797 32.5124C25.6394 33.162 25.2404 33.7934 24.6219 34.019C23.8778 34.2986 22.9858 34.2761 22.2955 33.8611C21.7711 33.5409 21.5111 32.9229 21.5066 32.323C21.5066 31.7547 21.5066 31.1818 21.5066 30.6135C21.5066 30.1489 21.5873 29.6527 21.8786 29.2783C22.1476 28.9265 22.56 28.71 22.9858 28.6198ZM23.3085 29.567C22.9947 29.6708 22.8603 30.0271 22.8513 30.3338C22.8379 30.9653 22.8513 31.5923 22.8468 32.2238C22.8468 32.526 22.8917 32.8868 23.1606 33.0763C23.5237 33.2973 24.1333 33.2296 24.2857 32.7741C24.4336 32.2779 24.3395 31.7547 24.3619 31.245C24.335 30.7804 24.4426 30.2797 24.2319 29.8422C24.0616 29.5129 23.6313 29.4497 23.3085 29.567Z" fill="white"/>
<path d="M5.61641 0C5.86742 0.022553 6.11844 0.0180424 6.37393 0.0180424C14.1823 0.0180424 21.9862 0.0180424 29.7945 0.0180424C30.1173 0.0180424 30.4445 4.47035e-08 30.7627 0.0721696C31.5382 0.284168 32.1119 1.05097 32.103 1.85837C32.103 3.16644 32.103 4.47452 32.103 5.78259C32.103 12.5395 32.103 19.2918 32.103 26.0487C23.2681 26.0577 14.4288 26.0397 5.59399 26.0577C5.59399 19.4497 5.59399 12.8462 5.59399 6.24267C5.68812 4.75417 5.62537 3.26116 5.6433 1.76816C5.63434 1.1908 5.66571 0.608931 5.62089 0.0315742V0.0045106L5.61641 0ZM14.9891 5.80063V20.221C16.1859 20.221 17.3782 20.221 18.5706 20.221V14.3978C20.1439 14.3978 21.7127 14.3978 23.2816 14.3978V11.8448C21.7127 11.8448 20.1439 11.8448 18.5751 11.8448C18.5616 10.6946 18.5751 9.54443 18.5706 8.39423C20.4173 8.39423 22.2686 8.40325 24.1153 8.39423C24.1781 7.54623 24.1198 6.66667 24.1422 5.80063C21.0897 5.80063 18.0416 5.80063 14.9891 5.80063Z" fill="#F36C21"/>
<path d="M4.81411 0.464628C5.07857 0.315778 5.3251 0.112801 5.62094 0.0270996C5.66577 0.604456 5.63439 1.18632 5.64335 1.76368C5.62542 3.25669 5.68818 4.7497 5.59405 6.23819C5.59405 12.8417 5.59405 19.4497 5.59405 26.0533C4.73791 26.5539 3.8997 27.0817 3.04804 27.5869C2.03501 28.2048 1.01751 28.8183 0 29.4362C0 20.7533 0.00448241 12.0704 0 3.3875C1.59574 2.39516 3.20941 1.43441 4.80963 0.455607" fill="#F7934A"/>
<path d="M32.103 5.78259C32.9547 5.78259 33.8063 5.78259 34.658 5.78259C34.658 16.1976 34.658 26.608 34.658 37.023C24.725 37.023 14.7919 37.023 4.85443 37.023C3.87279 37.0636 3.02561 36.1525 3.03906 35.1827C3.03906 32.6522 3.02113 30.1218 3.04802 27.5913C3.89968 27.0862 4.73789 26.5539 5.59403 26.0577C14.4289 26.0397 23.2637 26.0577 32.103 26.0487C32.103 19.2918 32.103 12.5395 32.103 5.78259ZM12.3535 29.0979C12.0621 29.355 11.9187 29.7339 11.856 30.1128C12.2818 30.1218 12.7076 30.1128 13.1334 30.1128C13.1693 29.5038 14.0299 29.2918 14.393 29.7294C14.5499 30.0271 14.532 30.5097 14.1913 30.6766C13.9044 30.8029 13.5817 30.7578 13.2769 30.7668C13.2769 31.0735 13.2769 31.3802 13.2769 31.687C13.7251 31.687 14.3527 31.6238 14.5857 32.111C14.6664 32.4222 14.6799 32.8372 14.4109 33.0627C13.9537 33.4145 13.129 33.2341 13.0259 32.6026C12.6 32.6162 12.1742 32.5846 11.7529 32.6252C11.838 33.0401 12.0084 33.4641 12.349 33.7303C12.7928 34.0911 13.3845 34.1858 13.9358 34.1949C14.5588 34.1768 15.2312 34.0099 15.6615 33.5183C16.0201 33.1258 16.038 32.544 15.9484 32.0433C15.8094 31.5291 15.2895 31.2494 14.8009 31.1592C15.1281 31.078 15.4643 30.9247 15.6615 30.636C15.8587 30.3654 15.8229 30.009 15.787 29.6978C15.6929 29.1655 15.2088 28.8002 14.7157 28.6649C13.9223 28.4393 12.9766 28.5205 12.3445 29.0979M17.5217 28.8363C16.9525 29.1475 16.6208 29.7925 16.6163 30.433C16.6163 31.1277 16.6073 31.8178 16.6163 32.5124C16.6432 33.1258 17.0197 33.7122 17.58 33.9693C18.2479 34.2715 19.0413 34.276 19.7181 34.0099C20.2918 33.7799 20.7446 33.2251 20.7894 32.5936C20.8163 32.1561 20.8118 31.6825 20.5742 31.2991C20.0453 30.4195 18.6737 30.2977 17.9475 30.9923C17.97 30.5729 17.8579 30.0857 18.1493 29.7339C18.5392 29.355 19.4223 29.4497 19.5029 30.0722C19.8974 30.0812 20.2874 30.0722 20.6818 30.0722C20.6729 29.4813 20.2918 28.9355 19.7405 28.7325C19.0323 28.4754 18.1986 28.4664 17.5217 28.8272M22.9858 28.6198C22.5599 28.71 22.1476 28.9265 21.8786 29.2783C21.5873 29.6527 21.5021 30.1443 21.5066 30.6134C21.5066 31.1863 21.5066 31.7546 21.5066 32.323C21.5111 32.9229 21.771 33.5408 22.2955 33.8611C22.9858 34.2761 23.8778 34.2986 24.6219 34.0189C25.2404 33.7934 25.6394 33.1574 25.6797 32.5124C25.7111 31.8539 25.6797 31.1908 25.6931 30.5277C25.7021 29.9233 25.487 29.2738 24.9715 28.9265C24.3933 28.5431 23.6492 28.4935 22.9858 28.6198Z" fill="#923E1F"/>
<path d="M23.3086 29.567C23.6268 29.4497 24.0616 29.5129 24.232 29.8421C24.4426 30.2751 24.335 30.7803 24.3619 31.2449C24.335 31.7546 24.4292 32.2778 24.2857 32.774C24.1378 33.2296 23.5282 33.2972 23.1607 33.0762C22.8962 32.8868 22.8469 32.5304 22.8469 32.2237C22.8514 31.5922 22.8379 30.9608 22.8514 30.3338C22.8603 30.0225 22.9948 29.6707 23.3086 29.567Z" fill="#923E1F"/>
<path d="M17.9521 31.8854C18.1672 31.6734 18.4406 31.5111 18.7499 31.5066C19.0503 31.4569 19.4044 31.6374 19.4447 31.9621C19.485 32.323 19.5164 32.774 19.2161 33.0356C18.8799 33.2702 18.3286 33.2612 18.0731 32.9093C17.8803 32.6026 17.9745 32.2237 17.9565 31.8809" fill="#923E1F"/>
</svg>
