<svg width="37" height="36" viewBox="0 0 37 36" fill="none" xmlns="http://www.w3.org/2000/svg">
<g clip-path="url(#clip0_22_141)">
<mask id="mask0_22_141" style="mask-type:luminance" maskUnits="userSpaceOnUse" x="0" y="0" width="37" height="36">
<path d="M37 0H0V35.9992H37V0Z" fill="white"/>
</mask>
<g mask="url(#mask0_22_141)">
<path fill-rule="evenodd" clip-rule="evenodd" d="M18.4996 0C8.2839 0 0 8.26245 0 18.4552C0 26.6089 5.30072 33.5269 12.6516 35.9671C13.576 36.1377 13.9155 35.5667 13.9155 35.0794C13.9155 34.6399 13.8982 33.1851 13.8904 31.6435C8.74411 32.7596 7.65747 29.4661 7.65747 29.4661C6.81622 27.3332 5.60335 26.7654 5.60335 26.7654C3.92478 25.6195 5.72958 25.6438 5.72958 25.6438C7.58691 25.7736 8.56536 27.5459 8.56536 27.5459C10.2149 30.3671 12.8931 29.5513 13.9492 29.0797C14.1154 27.8869 14.5944 27.0727 15.1236 26.6121C11.0146 26.1459 6.6947 24.5629 6.6947 17.4916C6.6947 15.4768 7.41756 13.8305 8.60142 12.5376C8.40934 12.0722 7.77586 10.1959 8.78096 7.65317C8.78096 7.65317 10.3349 7.1573 13.8692 9.54515C15.3447 9.13609 16.9277 8.93117 18.4996 8.92413C20.0716 8.93117 21.6553 9.13609 23.1339 9.54515C26.6651 7.1573 28.2159 7.65317 28.2159 7.65317C29.2226 10.1951 28.5899 12.0722 28.3978 12.5376C29.584 13.8297 30.3014 15.4761 30.3014 17.4916C30.3014 24.5801 25.9736 26.1404 21.8536 26.598C22.5169 27.1705 23.108 28.2936 23.108 30.0159C23.108 32.4851 23.0869 34.4725 23.0869 35.081C23.0869 35.5722 23.4201 36.1478 24.3578 35.9664C31.7048 33.523 36.9984 26.6074 36.9984 18.456C37 8.26245 28.7169 0 18.4996 0Z" fill="#191717"/>
</g>
<path d="M7.00672 26.4979C6.96595 26.5894 6.82091 26.6176 6.68997 26.5542C6.55591 26.494 6.48064 26.3688 6.52376 26.2773C6.56375 26.1827 6.70801 26.1569 6.84207 26.2194C6.97614 26.2797 7.05297 26.4064 7.00672 26.4979Z" fill="#191717"/>
<path d="M7.75625 27.3316C7.66765 27.413 7.49517 27.3754 7.37835 27.2464C7.25683 27.1181 7.23488 26.9453 7.32425 26.8632C7.4152 26.7818 7.5822 26.8201 7.70372 26.9484C7.82524 27.0782 7.84876 27.2495 7.75625 27.3316Z" fill="#191717"/>
<path d="M8.48545 28.3946C8.37177 28.4736 8.18674 28.3993 8.07227 28.2358C7.95859 28.0716 7.95859 27.8745 8.07463 27.7962C8.18909 27.7172 8.37177 27.7884 8.4878 27.9511C8.6007 28.1177 8.6007 28.3148 8.48467 28.3954L8.48545 28.3946Z" fill="#191717"/>
<path d="M9.48506 29.4215C9.38392 29.5334 9.16754 29.5029 9.00995 29.3511C8.84766 29.2025 8.80297 28.9914 8.90489 28.8795C9.0076 28.7677 9.22477 28.799 9.38392 28.9499C9.54465 29.0985 9.59326 29.3113 9.48506 29.4215Z" fill="#191717"/>
<path d="M10.8633 30.0183C10.8186 30.163 10.6109 30.2287 10.4007 30.1669C10.1914 30.1035 10.0542 29.9346 10.0965 29.7883C10.1397 29.6429 10.349 29.574 10.5599 29.6397C10.7692 29.7031 10.9056 29.8705 10.8625 30.0183H10.8633Z" fill="#191717"/>
<path d="M12.3781 30.1285C12.3828 30.281 12.2056 30.407 11.9853 30.4101C11.7642 30.4156 11.5846 30.292 11.5823 30.1418C11.5823 29.9885 11.7563 29.8634 11.9774 29.8595C12.1977 29.8556 12.3781 29.9776 12.3781 30.1285Z" fill="#191717"/>
<path d="M13.7861 29.8892C13.8128 30.0378 13.6599 30.1904 13.4411 30.2303C13.2263 30.2694 13.028 30.1778 13.0005 30.0308C12.9739 29.8783 13.1299 29.7258 13.3439 29.6867C13.5627 29.6491 13.7587 29.7383 13.7861 29.8892Z" fill="#191717"/>
</g>
<defs>
<clipPath id="clip0_22_141">
<rect width="37" height="36" fill="white"/>
</clipPath>
</defs>
</svg>
