<svg width="37" height="51" viewBox="0 0 37 51" fill="none" xmlns="http://www.w3.org/2000/svg">
<g clip-path="url(#clip0_22_180)">
<mask id="mask0_22_180" style="mask-type:luminance" maskUnits="userSpaceOnUse" x="0" y="0" width="37" height="51">
<path d="M37 0H0V51H37V0Z" fill="white"/>
</mask>
<g mask="url(#mask0_22_180)">
<path d="M3.36736 46.9033L0 10.0225H37L33.6292 46.8975L18.477 51L3.36736 46.9033Z" fill="#E34E26"/>
</g>
<path d="M18.5 47.8642L30.7432 44.55L33.6241 13.0383H18.5V47.8642Z" fill="#F06629"/>
<path d="M18.5 26.7166H12.3703L11.947 22.085H18.5V17.5616H18.4838H6.88489L6.99582 18.775L8.13421 31.24H18.5V26.7166Z" fill="#EBEBEB"/>
<path d="M18.5 38.4642L18.4795 38.47L13.3209 37.1092L12.9915 33.5017H10.4843H8.34155L8.99011 40.6042L18.4786 43.1767L18.5 43.1709V38.4642Z" fill="#EBEBEB"/>
<path d="M3.4425 0H5.79607V2.27083H7.94996V0H10.3035V6.8775H7.94996V4.57417H5.79693V6.8775H3.4425V0Z" fill="black"/>
<path d="M13.3995 2.28083H11.3267V0H17.8267V2.28083H15.753V6.8775H13.3995V2.28083Z" fill="black"/>
<path d="M18.8584 0H21.3127L22.8223 2.41667L24.331 0H26.7861V6.8775H24.4419V3.46833L22.8223 5.91417H22.7821L21.1616 3.46833V6.8775H18.8584V0Z" fill="black"/>
<path d="M27.9578 0H30.3122V4.60417H33.6224V6.8775H27.9578V0Z" fill="black"/>
<path d="M18.4838 26.7167V31.24H24.1876L23.65 37.1067L18.4838 38.4683V43.1742L27.98 40.6042L28.0491 39.84L29.138 27.9317L29.2506 26.7167H28.003H18.4838Z" fill="white"/>
<path d="M18.4838 17.5616V20.3708V22.0741V22.085H29.6577H29.6722L29.7652 21.0683L29.976 18.775L30.0869 17.5616H18.4838Z" fill="white"/>
</g>
<defs>
<clipPath id="clip0_22_180">
<rect width="37" height="51" fill="white"/>
</clipPath>
</defs>
</svg>
