<svg width="37" height="37" viewBox="0 0 37 37" fill="none" xmlns="http://www.w3.org/2000/svg">
<g clip-path="url(#clip0_22_78)">
<path d="M31.6087 0H5.39132C2.41377 0 0 2.40417 0 5.36986V31.6301C0 34.5958 2.41377 37 5.39132 37H31.6087C34.5862 37 37 34.5958 37 31.6301V5.36986C37 2.40417 34.5862 0 31.6087 0Z" fill="#300505"/>
<path d="M12.3498 22.9127L10.9847 27.4874H6.71204L12.4582 10.3077H17.9037L23.9209 27.4874H19.4265L17.9086 22.9127H12.3547H12.3498ZM17.2384 19.9185L16.0015 16.247C15.6614 15.2407 15.3312 14.102 15.0405 13.1399H14.9912C14.7152 14.1069 14.454 15.2555 14.1485 16.2519L12.9855 19.9185H17.2384Z" fill="#ED8C2F"/>
<path d="M30.288 11.4956C30.288 12.5804 29.4798 13.4737 28.0901 13.4737C26.7004 13.4737 25.9513 12.5755 25.9513 11.4956C25.9513 10.4157 26.7694 9.51257 28.1196 9.51257C29.4699 9.51257 30.2634 10.3863 30.2831 11.4956H30.288ZM26.0794 27.4874V15.015H30.1402V27.4874H26.0794Z" fill="#ED8C2F"/>
</g>
<defs>
<clipPath id="clip0_22_78">
<rect width="37" height="37" fill="white"/>
</clipPath>
</defs>
</svg>
