<svg width="37" height="38" viewBox="0 0 37 38" fill="none" xmlns="http://www.w3.org/2000/svg">
<g clip-path="url(#clip0_22_85)">
<path d="M31.5973 0H5.40272C2.41888 0 0 2.46063 0 5.49597V32.504C0 35.5394 2.41888 38 5.40272 38H31.5973C34.5811 38 37 35.5394 37 32.504V5.49597C37 2.46063 34.5811 0 31.5973 0Z" fill="#440B22"/>
<path d="M12.71 11.2129V27.5101H8.9552V11.2129H12.71Z" fill="#EF436B"/>
<path d="M27.9461 10.199V23.9665C27.9461 25.3869 27.9905 26.8224 28.0398 27.515H24.6748L24.5268 25.6479H24.4824C23.6584 27.1386 22.0993 27.8062 20.4711 27.8062C17.6636 27.8062 15.1078 25.5375 15.1078 21.728C15.0832 17.803 17.7377 15.3888 20.7523 15.3888C22.3065 15.3888 23.5548 15.9057 24.142 16.7741H24.1913V10.199H27.9411H27.9461ZM24.1962 20.8546C24.1962 20.6488 24.1864 20.3979 24.1469 20.1971C23.915 19.123 22.9924 18.2597 21.7441 18.2597C19.9135 18.2597 18.9415 19.7153 18.9415 21.5623C18.9415 23.4094 20.0172 24.7545 21.7194 24.7545C22.943 24.7545 23.915 23.8561 24.1272 22.7469C24.1864 22.4708 24.1962 22.1747 24.1962 21.8836V20.8597V20.8546Z" fill="#EF436B"/>
</g>
<defs>
<clipPath id="clip0_22_85">
<rect width="37" height="38" fill="white"/>
</clipPath>
</defs>
</svg>
