<svg width="36" height="34" viewBox="0 0 36 34" fill="none" xmlns="http://www.w3.org/2000/svg">
<g clip-path="url(#clip0_22_71)">
<path d="M30.8879 0H5.1121C2.28877 0 0 2.26357 0 5.05583V28.9442C0 31.7364 2.28877 34 5.1121 34H30.8879C33.7112 34 36 31.7364 36 28.9442V5.05583C36 2.26357 33.7112 0 30.8879 0Z" fill="#131F35"/>
<path d="M5.72138 8.65284C6.99482 8.45804 8.81337 8.28589 11.5343 8.28589C14.0446 8.28589 15.8173 8.80234 16.9717 9.67669C18.0985 10.5012 18.9047 11.9283 18.9047 13.6724C18.9047 15.2762 18.3642 16.7349 17.3015 17.6682C15.8906 18.9367 13.8339 19.5256 11.2686 19.5256C10.6594 19.5256 10.1235 19.4803 9.72952 19.4123V25.4059H5.7168V8.65284H5.72138ZM9.7341 16.3453C10.1051 16.4314 10.577 16.4676 11.2641 16.4676C13.4491 16.4676 14.892 15.4891 14.892 13.7223C14.892 12.1321 13.6552 11.285 11.5664 11.285C10.6502 11.285 10.041 11.3529 9.7341 11.4118V16.3453Z" fill="#00BEF3"/>
<path d="M20.8836 21.9447C21.6623 22.4204 23.3343 22.9505 24.5574 22.9505C25.7804 22.9505 26.3301 22.5563 26.3301 21.9583C26.3301 21.3241 25.927 21.0387 24.3787 20.6128C21.6074 19.8698 20.4714 18.4383 20.4943 16.8844C20.4943 14.5377 22.5877 12.7799 25.8766 12.7799C27.4753 12.7799 28.9182 13.1469 29.7061 13.5455L29.0053 16.2592C28.4189 15.9602 27.1684 15.4981 25.9866 15.4981C25.0109 15.4981 24.4199 15.8288 24.4199 16.4721C24.4199 17.0792 24.9834 17.3872 26.6279 17.8539C29.1656 18.5696 30.2604 19.743 30.2787 21.6774C30.2787 23.9018 28.4693 25.7094 24.5757 25.7094C22.7571 25.7094 21.2226 25.3153 20.1461 24.7898L20.8836 21.9447Z" fill="#00BEF3"/>
</g>
<defs>
<clipPath id="clip0_22_71">
<rect width="36" height="34" fill="white"/>
</clipPath>
</defs>
</svg>
