<svg width="37" height="37" viewBox="0 0 37 37" fill="none" xmlns="http://www.w3.org/2000/svg">
<g clip-path="url(#clip0_22_92)">
<path d="M37 5.38245V31.6126C37 34.588 34.5932 36.9951 31.629 36.9951H5.37097C2.40189 36.9951 0 34.5831 0 31.6126V5.38245C0 2.41197 2.40682 0 5.37097 0H31.629C32.5908 0 33.4884 0.252071 34.2677 0.696901C34.7905 0.993454 35.2541 1.36909 35.6486 1.81392C35.8015 1.98691 35.9445 2.16978 36.0728 2.36254C36.6548 3.22255 37 4.26543 37 5.38245Z" fill="#29274C"/>
<path d="M17.9476 10.8885C16.7294 9.95433 14.8651 9.41064 12.2264 9.41064C9.36585 9.41064 7.45223 9.59352 6.11072 9.80111V27.5894H10.3325V21.2234C10.7468 21.2975 11.3091 21.342 11.9502 21.342C13.2523 21.342 14.431 21.1937 15.4717 20.8922C16.5814 20.5709 17.5283 20.0668 18.2928 19.3699C19.1904 18.5741 19.733 17.4225 19.9105 16.1177C19.9549 15.7964 19.9796 15.4653 19.9796 15.1242C19.9796 13.2757 19.1263 11.7584 17.9426 10.8835L17.9476 10.8885ZM11.9453 18.0947C11.2252 18.0947 10.7271 18.0552 10.3375 17.9613V12.7222C10.658 12.6579 11.3041 12.5887 12.2659 12.5887C14.4606 12.5887 15.7627 13.4883 15.7627 15.1786C15.7627 17.0518 14.2436 18.0947 11.9453 18.0947Z" fill="#8992C8"/>
<path d="M29.9768 14.1852C28.6057 14.1852 26.8351 15.0106 26.1298 17.0963H26.0312L25.8931 14.5064H22.2434C22.3223 15.5988 22.3519 16.8196 22.3519 18.9449V27.5894H26.6132V20.9763C26.6132 20.7192 26.623 20.4523 26.6625 20.2052C26.8992 18.9548 27.93 18.07 29.676 18.07C30.179 18.07 30.544 18.1343 30.8892 18.2084V14.2643C30.5539 14.1901 30.3615 14.1852 29.9768 14.1852Z" fill="#8992C8"/>
</g>
<defs>
<clipPath id="clip0_22_92">
<rect width="37" height="37" fill="white"/>
</clipPath>
</defs>
</svg>
