<svg width="37" height="37" viewBox="0 0 37 37" fill="none" xmlns="http://www.w3.org/2000/svg">
<g clip-path="url(#clip0_22_427)">
<path d="M0.352007 12.9025C0.352007 12.9025 -0.549169 12.2459 0.532303 11.3691L3.05188 9.09183C3.05188 9.09183 3.77276 8.32514 4.53506 8.99317L27.7855 26.7866V35.3189C27.7855 35.3189 27.7742 36.6586 26.0733 36.5107L0.352007 12.9025Z" fill="#2489CA"/>
<path d="M6.34493 18.4022L0.352062 23.9095C0.352062 23.9095 -0.263747 24.3725 0.352062 25.1999L3.13447 27.7582C3.13447 27.7582 3.79535 28.4754 4.7716 27.6595L11.1249 22.7898L6.34493 18.4022Z" fill="#1070B3"/>
<path d="M16.8662 18.4477L27.8568 9.96469L27.7854 1.47796C27.7854 1.47796 27.3161 -0.374201 25.7502 0.589822L11.1248 14.0449L16.8661 18.4477H16.8662Z" fill="#0877B9"/>
<path d="M26.0732 36.5221C26.7115 37.1825 27.4851 36.9661 27.4851 36.9661L36.0501 32.7C37.1465 31.9447 36.9925 31.0071 36.9925 31.0071V5.53154C36.9925 4.4119 35.8585 4.02478 35.8585 4.02478L28.4352 0.407579C26.8131 -0.605854 25.7504 0.589824 25.7504 0.589824C25.7504 0.589824 27.1172 -0.404676 27.7856 1.47796V35.1632C27.7856 35.3947 27.7367 35.6225 27.6391 35.8274C27.4438 36.2259 27.0194 36.5979 26.0019 36.4423L26.0733 36.5221H26.0732Z" fill="#3C99D4"/>
</g>
<defs>
<clipPath id="clip0_22_427">
<rect width="37" height="37" fill="white"/>
</clipPath>
</defs>
</svg>
