<svg width="141" height="141" viewBox="0 0 141 141" fill="none" xmlns="http://www.w3.org/2000/svg">
<path d="M107.251 92.5389C107.251 92.5389 98.4713 117.559 71.5913 118.199C53.3613 118.629 37.6013 107.069 31.4613 89.8989C23.9213 67.3889 35.5713 42.5289 59.1413 30.7989C67.7913 26.6589 76.9613 24.5589 86.4113 24.5589C99.6713 24.5589 112.861 28.7189 124.541 36.5889L124.801 36.7689C127.561 38.7289 128.261 39.1489 129.341 39.1489C129.341 39.1489 130.591 39.1289 131.201 38.6089C131.821 38.0789 131.921 37.5389 131.921 37.5389C132.681 35.8589 131.421 34.6389 130.671 33.9089C120.571 24.1589 104.081 17.6789 87.5913 16.9889C86.8613 16.9689 86.1213 16.9589 85.4013 16.9589C68.5113 16.9589 54.4313 21.7989 39.8613 33.6189C55.2913 19.3989 69.6513 14.6189 88.6713 13.3289C92.8613 13.0489 98.9213 13.4189 101.861 13.4189C105.671 13.4189 105.321 10.5089 102.411 9.78888C96.4813 8.29888 79.8713 5.55888 57.6013 12.6389C36.6313 19.2889 20.8813 33.8989 13.7913 53.2389C7.14131 71.3689 9.28131 90.3489 19.8813 106.749C31.3413 123.409 49.0313 133.089 70.1013 133.539C81.5313 133.789 89.9413 131.049 99.1413 126.109C114.541 117.359 122.991 102.099 123.601 86.7689H108.771C108.461 88.7589 107.981 90.5589 107.251 92.5189V92.5389Z" fill="url(#paint0_linear_47_25)"/>
<path d="M108.381 52.7289C103.151 48.3889 95.6513 44.0189 85.4913 43.3489C79.7213 42.9689 75.2613 43.3989 71.5113 45.1089C71.5113 45.1089 67.9113 46.6789 68.2813 48.2389C68.7313 50.1389 71.7313 50.2089 71.7313 50.2089C73.0313 50.0689 74.3513 49.9989 75.6613 49.9989C83.3713 49.9989 90.5813 52.3789 96.5313 56.8789C98.2013 58.1289 99.6913 59.3489 101.051 60.8589H108.381V52.7389V52.7289Z" fill="url(#paint1_linear_47_25)"/>
<path fill-rule="evenodd" clip-rule="evenodd" d="M121.081 63.9289V53.7889H111.471V63.9289H101.301V73.5589H111.471V83.6989H121.081V73.5589H131.241V63.9289H121.081Z" fill="#003478"/>
<path d="M65.9913 93.839V64.209H58.4913V75.759H48.3113V64.209H40.8213V93.839H48.3113V81.619H58.4913V93.839H65.9913Z" fill="#003478"/>
<path d="M71.0613 64.209V93.839H78.5613V87.039L83.1313 80.969L89.6513 93.839H98.0513L88.2613 74.789L96.1013 64.209H88.7813L78.5613 78.129V64.209H71.0613Z" fill="#003478"/>
<defs>
<linearGradient id="paint0_linear_47_25" x1="-23.4487" y1="-27.6411" x2="233.911" y2="229.729" gradientUnits="userSpaceOnUse">
<stop stop-color="#25BCEF"/>
<stop offset="0.06" stop-color="#22B8E0"/>
<stop offset="0.45" stop-color="#0FA387"/>
<stop offset="0.72" stop-color="#04964F"/>
<stop offset="0.85" stop-color="#00913A"/>
</linearGradient>
<linearGradient id="paint1_linear_47_25" x1="-6.71867" y1="-44.3711" x2="250.641" y2="212.999" gradientUnits="userSpaceOnUse">
<stop stop-color="#25BCEF"/>
<stop offset="0.06" stop-color="#22B8E0"/>
<stop offset="0.45" stop-color="#0FA387"/>
<stop offset="0.72" stop-color="#04964F"/>
<stop offset="0.85" stop-color="#00913A"/>
</linearGradient>
</defs>
</svg>
