<svg width="56" height="56" viewBox="0 0 56 56" fill="none" xmlns="http://www.w3.org/2000/svg">
<g clip-path="url(#clip0_23_70)">
<path d="M56 43.5392C56 50.4219 50.4205 56 43.5403 56H12.4597C5.57946 56 0 50.4219 0 43.5392V12.4608C0 5.57807 5.57946 0 12.4597 0H43.5403C50.4205 0 56 5.57807 56 12.4608V43.5429V43.5392Z" fill="#F9E000"/>
<path d="M27.825 10.5435C16.7003 10.5435 7.68262 17.6304 7.68262 26.3776C7.68262 32.0691 11.5011 37.0572 17.2365 39.8482C16.8144 41.41 15.7114 45.5132 15.4908 46.3906C15.217 47.4797 15.8902 47.4646 16.3352 47.1734C16.6813 46.9427 21.8538 43.4446 24.0863 41.9357C25.2996 42.1134 26.5471 42.208 27.825 42.208C38.9497 42.208 47.9673 35.121 47.9673 26.3776C47.9673 17.6342 38.9497 10.5435 27.825 10.5435Z" fill="#371C1D"/>
<path d="M13.7719 23.4581H15.8447C15.8447 23.4581 15.8561 29.1193 15.8447 30.4392C15.8447 31.4035 18.0012 31.4149 17.9974 30.4543L18.005 23.5337C18.005 23.5337 18.701 23.5375 20.0664 23.5375C21.3557 23.5375 21.3557 21.5218 20.0664 21.5218C18.6135 21.5218 13.7605 21.4802 13.7605 21.4802C12.5434 21.4802 12.5472 23.4581 13.7605 23.4581" fill="#F9E000"/>
<mask id="mask0_23_70" style="mask-type:luminance" maskUnits="userSpaceOnUse" x="12" y="21" width="10" height="11">
<path d="M13.7719 23.4581H15.8447C15.8447 23.4581 15.8561 29.1193 15.8447 30.4392C15.8447 31.4035 18.0012 31.4149 17.9974 30.4543L18.005 23.5337C18.005 23.5337 18.701 23.5375 20.0664 23.5375C21.3557 23.5375 21.3557 21.5218 20.0664 21.5218C18.6135 21.5218 13.7605 21.4802 13.7605 21.4802C12.5434 21.4802 12.5472 23.4581 13.7605 23.4581" fill="white"/>
</mask>
<g mask="url(#mask0_23_70)">
<path d="M21.3595 21.4839H12.551V31.4185H21.3595V21.4839Z" fill="#F9E000"/>
</g>
<path d="M23.6948 23.8248L24.8472 27.4175H22.4435L23.6948 23.8248ZM22.4016 22.1419C21.892 23.2575 20.0474 28.5331 19.4389 29.9323C18.9977 30.942 20.9031 31.7665 21.3443 30.7567L21.7589 29.3159H25.5508C25.5508 29.3159 25.4215 29.3764 25.9235 30.6962C26.3305 31.7665 28.3006 31.0252 27.8936 29.955C27.3117 28.4272 25.296 22.921 24.927 22.1419C24.7597 21.7827 24.1512 21.5217 23.5616 21.5217C23.0748 21.5217 22.5994 21.6995 22.3978 22.1419" fill="#F9E000"/>
<mask id="mask1_23_70" style="mask-type:luminance" maskUnits="userSpaceOnUse" x="19" y="21" width="9" height="11">
<path d="M23.6948 23.8248L24.8472 27.4175H22.4435L23.6948 23.8248ZM22.4016 22.1419C21.892 23.2575 20.0474 28.5331 19.4389 29.9323C18.9977 30.942 20.9031 31.7665 21.3443 30.7567L21.7589 29.3159H25.5508C25.5508 29.3159 25.4215 29.3764 25.9235 30.6962C26.3305 31.7665 28.3006 31.0252 27.8936 29.955C27.3117 28.4272 25.296 22.921 24.927 22.1419C24.7597 21.7827 24.1512 21.5217 23.5616 21.5217C23.0748 21.5217 22.5994 21.6995 22.3978 22.1419" fill="white"/>
</mask>
<g mask="url(#mask1_23_70)">
<path d="M28.3044 21.5254H18.9939V31.7739H28.3044V21.5254Z" fill="#F9E000"/>
</g>
<path d="M28.6238 22.4709C28.6238 24.2635 28.6352 30.042 28.6352 30.042C28.6352 30.042 28.4679 31.1916 29.4605 31.1916C30.4532 31.1916 32.6477 31.1803 33.6214 31.1803C34.595 31.1803 34.5912 29.1192 33.6175 29.1192C32.6439 29.1192 30.864 29.1079 30.864 29.1079C30.864 29.1079 30.8716 23.7643 30.8678 22.4634C30.8678 21.8356 30.3049 21.5217 29.7458 21.5217C29.1867 21.5217 28.62 21.8394 28.6238 22.4672" fill="#F9E000"/>
<mask id="mask2_23_70" style="mask-type:luminance" maskUnits="userSpaceOnUse" x="28" y="21" width="7" height="11">
<path d="M28.6238 22.4709C28.6238 24.2635 28.6352 30.042 28.6352 30.042C28.6352 30.042 28.4679 31.1916 29.4605 31.1916C30.4532 31.1916 32.6477 31.1803 33.6214 31.1803C34.595 31.1803 34.5912 29.1192 33.6175 29.1192C32.6439 29.1192 30.864 29.1079 30.864 29.1079C30.864 29.1079 30.8716 23.7643 30.8678 22.4634C30.8678 21.8356 30.3049 21.5217 29.7458 21.5217C29.1867 21.5217 28.62 21.8394 28.6238 22.4672" fill="white"/>
</mask>
<g mask="url(#mask2_23_70)">
<path d="M34.5949 21.5254H28.4678V31.1915H34.5949V21.5254Z" fill="#F9E000"/>
</g>
<path d="M34.8538 22.1873C34.8766 22.9739 34.8271 30.0836 34.8271 30.6093C34.8271 31.4412 36.957 31.4375 36.957 30.6093C36.957 29.6449 36.957 27.8108 36.957 27.8108L37.5807 27.3116L40.3153 31.0177C40.8668 31.7438 42.6049 30.4315 42.0534 29.7092L39.1515 25.9086C39.1515 25.9086 41.1216 23.7908 41.8975 23.0231C42.3501 22.5768 40.9467 21.17 40.4941 21.6201C40.0567 22.0512 36.9684 25.1257 36.9684 25.1257C36.9684 25.1257 36.995 23.197 36.9684 22.1306C36.957 21.7259 36.4588 21.5293 35.9453 21.5293C35.3976 21.5293 34.8386 21.7524 34.85 22.1873" fill="#F9E000"/>
<mask id="mask3_23_70" style="mask-type:luminance" maskUnits="userSpaceOnUse" x="34" y="21" width="9" height="11">
<path d="M34.8538 22.1873C34.8766 22.9739 34.8271 30.0836 34.8271 30.6093C34.8271 31.4412 36.957 31.4375 36.957 30.6093C36.957 29.6449 36.957 27.8108 36.957 27.8108L37.5807 27.3116L40.3153 31.0177C40.8668 31.7438 42.6049 30.4315 42.0534 29.7092L39.1515 25.9086C39.1515 25.9086 41.1216 23.7908 41.8975 23.0231C42.3501 22.5768 40.9467 21.17 40.4941 21.6201C40.0567 22.0512 36.9684 25.1257 36.9684 25.1257C36.9684 25.1257 36.995 23.197 36.9684 22.1306C36.957 21.7259 36.4588 21.5293 35.9453 21.5293C35.3976 21.5293 34.8386 21.7524 34.85 22.1873" fill="white"/>
</mask>
<g mask="url(#mask3_23_70)">
<path d="M42.6049 21.1738H34.8271V31.7476H42.6049V21.1738Z" fill="#F9E000"/>
</g>
</g>
<defs>
<clipPath id="clip0_23_70">
<rect width="56" height="56" fill="white"/>
</clipPath>
</defs>
</svg>
