<svg width="151" height="38" viewBox="0 0 151 38" fill="none" xmlns="http://www.w3.org/2000/svg">
<path d="M69.6748 14.8169C68.2063 14.8169 57.9977 14.7301 57.8881 14.8169C55.4722 16.6989 52.0762 29.8613 54.5899 29.8613H66.3765C69.8376 29.8613 71.1433 14.8169 69.6748 14.8169ZM63.2737 27.7848H58.8C58.8 27.7848 59.3863 21.3846 61.5091 17.0281H65.7548L63.2737 27.7848Z" fill="#003C85"/>
<path d="M103.507 14.8169C102.038 14.8169 91.8299 14.7301 91.7203 14.8169C89.3044 16.6989 85.9084 29.8613 88.4221 29.8613H100.209C103.67 29.8613 104.976 14.8169 103.507 14.8169ZM97.1089 27.7848H92.6352C92.6352 27.7848 93.2214 21.3846 95.3443 17.0281H99.59L97.1089 27.7848Z" fill="#003C85"/>
<path d="M28.8641 5.14646C30.2704 5.14646 31.4103 3.99438 31.4103 2.57323C31.4103 1.15207 30.2704 0 28.8641 0C27.4579 0 26.3179 1.15207 26.3179 2.57323C26.3179 3.99438 27.4579 5.14646 28.8641 5.14646Z" fill="#18A0DC"/>
<path d="M18.9398 8.08442C20.7613 8.08442 22.238 6.59209 22.238 4.7512C22.238 2.91031 20.7613 1.41797 18.9398 1.41797C17.1182 1.41797 15.6415 2.91031 15.6415 4.7512C15.6415 6.59209 17.1182 8.08442 18.9398 8.08442Z" fill="#0176C3"/>
<path d="M28.8641 31.1752C31.0045 31.1752 32.7397 29.4216 32.7397 27.2585C32.7397 25.0954 31.0045 23.3418 28.8641 23.3418C26.7237 23.3418 24.9885 25.0954 24.9885 27.2585C24.9885 29.4216 26.7237 31.1752 28.8641 31.1752Z" fill="#727272"/>
<path d="M19.4608 37.0699C21.3609 37.0699 22.9012 35.5133 22.9012 33.5931C22.9012 31.6728 21.3609 30.1162 19.4608 30.1162C17.5608 30.1162 16.0205 31.6728 16.0205 33.5931C16.0205 35.5133 17.5608 37.0699 19.4608 37.0699Z" fill="#727272"/>
<path d="M9.62235 38C11.0678 38 12.2396 36.8158 12.2396 35.355C12.2396 33.8942 11.0678 32.71 9.62235 32.71C8.17686 32.71 7.00507 33.8942 7.00507 35.355C7.00507 36.8158 8.17686 38 9.62235 38Z" fill="#727272"/>
<path d="M1.96296 34.6941C3.04708 34.6941 3.92592 33.806 3.92592 32.7103C3.92592 31.6147 3.04708 30.7266 1.96296 30.7266C0.878848 30.7266 0 31.6147 0 32.7103C0 33.806 0.878848 34.6941 1.96296 34.6941Z" fill="#727272"/>
<path d="M9.62236 15.6784C12.1503 15.6784 14.1996 13.6074 14.1996 11.0526C14.1996 8.49781 12.1503 6.42676 9.62236 6.42676C7.09439 6.42676 5.04507 8.49781 5.04507 11.0526C5.04507 13.6074 7.09439 15.6784 9.62236 15.6784Z" fill="#003C85"/>
<path d="M19.4609 24.3683C22.3011 24.3683 24.6036 22.0414 24.6036 19.171C24.6036 16.3006 22.3011 13.9736 19.4609 13.9736C16.6206 13.9736 14.3181 16.3006 14.3181 19.171C14.3181 22.0414 16.6206 24.3683 19.4609 24.3683Z" fill="#003C85"/>
<path d="M36.5265 7.71979C37.7038 7.71979 38.6582 6.75527 38.6582 5.56546C38.6582 4.37566 37.7038 3.41113 36.5265 3.41113C35.3492 3.41113 34.3947 4.37566 34.3947 5.56546C34.3947 6.75527 35.3492 7.71979 36.5265 7.71979Z" fill="#18A0DC"/>
<path d="M41.009 14.8174H54.2316L53.6454 17.0615H45.4501L44.5352 20.3289H51.3923C54.9836 20.3289 49.53 29.8648 49.53 29.8648H37.4502L38.3 27.489H46.1015C46.9838 27.489 46.7884 24.1887 46.7884 24.1887H39.5405C38.0394 24.1887 41.009 14.8174 41.009 14.8174Z" fill="#003C85"/>
<path d="M70.2699 29.73L74.2136 14.7783H80.8071L81.3933 26.5643H82.9299L85.5087 14.7783H88.7744L85.0853 29.8616H78.0655L76.5614 17.1601L73.5267 29.8616L70.2699 29.73Z" fill="#003C85"/>
<path d="M107.383 14.7783L106.927 16.6035H111.693L108.363 29.8616H113.65L116.721 16.6035H121.813L122.269 14.7783H107.383Z" fill="#727272"/>
<path d="M124.099 14.7783H136.374L135.918 16.7292H128.279L125.994 27.4859H133.176L132.72 29.8616H122.272C120.966 29.8616 120.706 26.7498 124.102 14.7783H124.099Z" fill="#727272"/>
<path d="M129.191 20.9541H134.547L134.023 23.659H128.475L129.191 20.9541Z" fill="#727272"/>
<path d="M138.529 14.7783H151L150.544 17.0284H143.492L140.555 27.7851H148.063L147.542 29.8646H136.963C135.068 29.8646 136.442 23.7846 138.529 14.7813V14.7783Z" fill="#727272"/>
<path d="M124.753 10.7033H114.989V9.77575H124.753V10.7033ZM119.61 4.88063C119.211 5.52094 118.675 6.06252 118.003 6.50236C117.331 6.9422 116.602 7.23842 115.818 7.39701L115.323 6.45149C116.001 6.3348 116.641 6.09543 117.242 5.73039C117.84 5.36535 118.32 4.92551 118.678 4.41086C119.039 3.89622 119.217 3.35764 119.217 2.79512V1.99622H120.211V2.79512C120.211 3.54614 120.01 4.24031 119.61 4.88362V4.88063ZM120.377 10.06H119.258V7.19653H120.377V10.06ZM120.952 4.40787C121.316 4.92252 121.795 5.36236 122.396 5.7274C122.997 6.09244 123.64 6.33181 124.321 6.4485L123.826 7.39401C123.036 7.23842 122.308 6.9422 121.636 6.50236C120.963 6.06252 120.431 5.52693 120.028 4.88362C119.628 4.24331 119.43 3.54315 119.433 2.78913V1.99023H120.404V2.78913C120.404 3.35165 120.584 3.89023 120.949 4.40488L120.952 4.40787Z" fill="#727272"/>
<path d="M137.096 10.7212H127.332V9.79367H137.096V10.7212ZM129.647 6.51131H128.493V2.17871H129.647V6.51131ZM135.995 7.05288H128.496V6.11336H135.995V7.05288ZM132.762 10.0839H131.637V6.67288H132.762V10.0839Z" fill="#727272"/>
<path d="M144.217 2.96239H141.236V6.8731H140.152V2.0468H144.217V2.96239ZM142.968 6.41829C143.521 6.3794 144.084 6.30758 144.655 6.19987L144.768 7.12743C144.187 7.23215 143.619 7.30097 143.056 7.33388C142.494 7.3668 141.757 7.38475 140.839 7.38475H140.149V6.46916H140.839C141.703 6.47215 142.414 6.45719 142.968 6.41829ZM143.788 5.11373H140.895V4.22207H143.788V5.11373ZM148.771 12.0704H147.657V9.39247H141.478V8.45892H148.771V12.0674V12.0704ZM146.061 5.03593H144.276V4.09042H146.061V5.03593ZM146.68 7.90538H145.597V1.52318H146.68V7.90538ZM148.771 7.98018H147.693V1.30176H148.771V7.98018Z" fill="#727272"/>
</svg>
