<svg width="40" height="40" viewBox="0 0 40 40" fill="none" xmlns="http://www.w3.org/2000/svg">
<g clip-path="url(#clip0_84_34)">
<path d="M40 31.0994C40 36.0157 36.0147 40 31.1002 40H8.89975C3.98533 40 0 36.0157 0 31.0994V8.90059C0 3.98433 3.98533 0 8.89975 0H31.1002C36.0147 0 40 3.98433 40 8.90059V31.1021V31.0994Z" fill="#F9E000"/>
<path d="M19.8751 7.53101C11.9289 7.53101 5.48767 12.5931 5.48767 18.8411C5.48767 22.9065 8.21519 26.4694 12.3119 28.4629C12.0104 29.5785 11.2225 32.5094 11.065 33.1361C10.8694 33.914 11.3502 33.9032 11.6681 33.6952C11.9153 33.5305 15.6099 31.0318 17.2046 29.954C18.0712 30.081 18.9623 30.1485 19.8751 30.1485C27.8213 30.1485 34.2625 25.0864 34.2625 18.8411C34.2625 12.5958 27.8213 7.53101 19.8751 7.53101Z" fill="#371C1D"/>
<path d="M9.83698 16.7558H11.3176C11.3176 16.7558 11.3257 20.7995 11.3176 21.7423C11.3176 22.4311 12.8579 22.4392 12.8552 21.7531L12.8606 16.8098C12.8606 16.8098 13.3578 16.8125 14.333 16.8125C15.254 16.8125 15.254 15.3727 14.333 15.3727C13.2953 15.3727 9.82883 15.343 9.82883 15.343C8.95951 15.343 8.96222 16.7558 9.82883 16.7558" fill="#F9E000"/>
<mask id="mask0_84_34" style="mask-type:luminance" maskUnits="userSpaceOnUse" x="9" y="15" width="7" height="8">
<path d="M9.83698 16.7558H11.3176C11.3176 16.7558 11.3257 20.7995 11.3176 21.7423C11.3176 22.4311 12.8579 22.4392 12.8552 21.7531L12.8606 16.8098C12.8606 16.8098 13.3578 16.8125 14.333 16.8125C15.254 16.8125 15.254 15.3727 14.333 15.3727C13.2953 15.3727 9.82883 15.343 9.82883 15.343C8.95951 15.343 8.96222 16.7558 9.82883 16.7558" fill="white"/>
</mask>
<g mask="url(#mask0_84_34)">
<path d="M15.2567 15.3457H8.96497V22.4419H15.2567V15.3457Z" fill="#F9E000"/>
</g>
<path d="M16.9247 17.0177L17.7479 19.5839H16.0309L16.9247 17.0177ZM16.001 15.8157C15.637 16.6126 14.3194 20.3808 13.8848 21.3802C13.5696 22.1015 14.9307 22.6903 15.2458 21.9691L15.5419 20.9399H18.2504C18.2504 20.9399 18.1581 20.9832 18.5167 21.9259C18.8073 22.6903 20.2146 22.1609 19.9239 21.3965C19.5082 20.3051 18.0684 16.3721 17.8049 15.8157C17.6854 15.5591 17.2507 15.3727 16.8296 15.3727C16.4819 15.3727 16.1423 15.4996 15.9983 15.8157" fill="#F9E000"/>
<mask id="mask1_84_34" style="mask-type:luminance" maskUnits="userSpaceOnUse" x="13" y="15" width="7" height="8">
<path d="M16.9247 17.0177L17.7479 19.5839H16.0309L16.9247 17.0177ZM16.001 15.8157C15.637 16.6126 14.3194 20.3808 13.8848 21.3802C13.5696 22.1015 14.9307 22.6903 15.2458 21.9691L15.5419 20.9399H18.2504C18.2504 20.9399 18.1581 20.9832 18.5167 21.9259C18.8073 22.6903 20.2146 22.1609 19.9239 21.3965C19.5082 20.3051 18.0684 16.3721 17.8049 15.8157C17.6854 15.5591 17.2507 15.3727 16.8296 15.3727C16.4819 15.3727 16.1423 15.4996 15.9983 15.8157" fill="white"/>
</mask>
<g mask="url(#mask1_84_34)">
<path d="M20.2173 15.3754H13.5669V22.6957H20.2173V15.3754Z" fill="#F9E000"/>
</g>
<path d="M20.4456 16.0507C20.4456 17.3311 20.4537 21.4586 20.4537 21.4586C20.4537 21.4586 20.3342 22.2798 21.0432 22.2798C21.7523 22.2798 23.3198 22.2717 24.0153 22.2717C24.7107 22.2717 24.708 20.7995 24.0125 20.7995C23.3171 20.7995 22.0457 20.7914 22.0457 20.7914C22.0457 20.7914 22.0511 16.9745 22.0484 16.0453C22.0484 15.5969 21.6463 15.3727 21.247 15.3727C20.8476 15.3727 20.4429 15.5996 20.4456 16.048" fill="#F9E000"/>
<mask id="mask2_84_34" style="mask-type:luminance" maskUnits="userSpaceOnUse" x="20" y="15" width="5" height="8">
<path d="M20.4456 16.0507C20.4456 17.3311 20.4537 21.4586 20.4537 21.4586C20.4537 21.4586 20.3342 22.2798 21.0432 22.2798C21.7523 22.2798 23.3198 22.2717 24.0153 22.2717C24.7107 22.2717 24.708 20.7995 24.0125 20.7995C23.3171 20.7995 22.0457 20.7914 22.0457 20.7914C22.0457 20.7914 22.0511 16.9745 22.0484 16.0453C22.0484 15.5969 21.6463 15.3727 21.247 15.3727C20.8476 15.3727 20.4429 15.5996 20.4456 16.048" fill="white"/>
</mask>
<g mask="url(#mask2_84_34)">
<path d="M24.7108 15.3754H20.3342V22.2797H24.7108V15.3754Z" fill="#F9E000"/>
</g>
<path d="M24.8954 15.8482C24.9117 16.41 24.8763 21.4884 24.8763 21.8639C24.8763 22.4581 26.3977 22.4554 26.3977 21.8639C26.3977 21.175 26.3977 19.8649 26.3977 19.8649L26.8432 19.5084L28.7965 22.1556C29.1904 22.6742 30.4319 21.7369 30.038 21.221L27.9652 18.5062C27.9652 18.5062 29.3724 16.9935 29.9266 16.4452C30.2499 16.1264 29.2474 15.1216 28.9242 15.443C28.6117 15.7509 26.4058 17.9471 26.4058 17.9471C26.4058 17.9471 26.4248 16.5694 26.4058 15.8077C26.3977 15.5186 26.0418 15.3782 25.675 15.3782C25.2838 15.3782 24.8845 15.5375 24.8926 15.8482" fill="#F9E000"/>
<mask id="mask3_84_34" style="mask-type:luminance" maskUnits="userSpaceOnUse" x="24" y="15" width="7" height="8">
<path d="M24.8954 15.8482C24.9117 16.41 24.8763 21.4884 24.8763 21.8639C24.8763 22.4581 26.3977 22.4554 26.3977 21.8639C26.3977 21.175 26.3977 19.8649 26.3977 19.8649L26.8432 19.5084L28.7965 22.1556C29.1904 22.6742 30.4319 21.7369 30.038 21.221L27.9652 18.5062C27.9652 18.5062 29.3724 16.9935 29.9266 16.4452C30.2499 16.1264 29.2474 15.1216 28.9242 15.443C28.6117 15.7509 26.4058 17.9471 26.4058 17.9471C26.4058 17.9471 26.4248 16.5694 26.4058 15.8077C26.3977 15.5186 26.0418 15.3782 25.675 15.3782C25.2838 15.3782 24.8845 15.5375 24.8926 15.8482" fill="white"/>
</mask>
<g mask="url(#mask3_84_34)">
<path d="M30.4319 15.1243H24.8763V22.6769H30.4319V15.1243Z" fill="#F9E000"/>
</g>
</g>
<defs>
<clipPath id="clip0_84_34">
<rect width="40" height="40" fill="white"/>
</clipPath>
</defs>
</svg>
