<svg width="243" height="243" viewBox="0 0 243 243" fill="none" xmlns="http://www.w3.org/2000/svg">
<path d="M63.5107 83.6827C63.5107 83.6827 63.5107 43.8954 72.8105 46.0873C82.1103 48.2793 94.4179 67.6249 104.264 68.9983C114.11 70.3717 126.148 65.1556 146.801 71.1902C146.801 71.1902 178.939 40.0457 184.277 49.9232C189.615 59.8006 189.477 60.3972 189.608 64.8365C189.74 69.2758 190.431 74.2076 190.839 75.9972C191.247 77.7868 191.115 83.8145 189.885 89.8561C188.654 95.8978 204.792 101.794 215.731 100.42C215.731 100.42 219.7 101.315 208.346 110.541C208.346 110.541 205.311 113.731 216.401 113.183C227.492 112.635 230.915 119.218 207.8 130.06L215.592 131.156C215.592 131.156 213.269 138.425 176.201 157.223C139.133 176.02 100.019 166.961 86.7568 164.908C73.495 162.855 50.5116 144.328 41.3501 143.502L30.4116 135.13C30.4116 135.13 24.396 131.426 40.3959 131.426C40.3959 131.426 51.4727 128.957 36.5653 126.078C21.658 123.199 11.2656 104.242 26.4427 110.291C26.4427 110.291 44.6344 111.123 42.5809 106.323C40.5273 101.523 30.9578 97.6804 30.9578 97.6804C30.9578 97.6804 22.0659 92.055 41.765 93.4284C61.464 94.8018 63.5107 83.6897 63.5107 83.6897V83.6827Z" fill="black"/>
<path d="M105.502 105.664C105.896 111.588 101.415 116 95.5036 115.694C89.329 115.375 84.6134 111.255 85.5054 105.664C86.3835 100.198 89.5226 95.6343 95.0472 95.6343C100.572 95.6343 105.135 100.136 105.502 105.664Z" fill="white"/>
<path d="M159.787 105.498C159.759 111.436 155.679 115.993 149.768 115.688C143.593 115.368 138.476 110.457 139.375 104.874C140.253 99.4078 143.89 96.6679 149.311 95.6344C154.732 94.6008 159.807 99.9072 159.787 105.505V105.498Z" fill="white"/>
<path d="M100.109 105.352C100.696 108.744 98.3454 110.971 95.0058 110.471C92.2193 110.055 89.903 108.175 89.903 105.352C89.903 102.529 93.2841 99.3175 96.1052 99.3175C98.9262 99.3175 99.6315 102.571 100.115 105.352H100.109Z" fill="black"/>
<path d="M154.753 104.929C155.036 108.092 152.748 110.555 149.892 110.27C147.223 110.007 144.672 107.683 144.672 104.985C144.672 102.286 147.216 99.4493 149.906 99.4493C152.596 99.4493 154.518 102.245 154.753 104.929Z" fill="black"/>
<path d="M111.379 125.669C111.379 125.669 117.125 129.921 117.395 131.433C117.664 132.945 118.764 138.432 112.195 141.449C105.626 144.467 106.587 142.136 103.441 142.136C100.295 142.136 99.3411 142.684 99.4725 145.153C99.6038 147.623 107.134 150.918 113.972 148.448C120.81 145.979 122.864 142.136 122.864 142.136C122.864 142.136 128.063 148.448 129.979 148.719C131.894 148.989 141.194 150.779 146.117 147.623C151.04 144.467 145.979 141.172 142.694 140.901C142.694 140.901 139.686 142.823 134.487 141.859C129.287 140.894 125.872 136.372 126.694 132.39C127.517 128.409 131.894 128.825 132.578 127.59C133.263 126.356 136.001 121.556 146.94 122.513C157.878 123.47 165.27 126.765 168.824 133.764C172.378 140.763 173.608 150.363 161.985 155.031C150.362 159.699 130.801 166.42 92.7793 160.108C54.7572 153.796 78.9644 112.635 111.379 125.669Z" fill="white"/>
<path d="M79.1027 79.3754C78.8261 79.3754 78.5426 79.2644 78.3421 79.0424C71.2203 71.3291 73.0803 61.7916 73.1633 61.3893C73.2808 60.8274 73.827 60.4598 74.3871 60.5777C74.9472 60.6956 75.3067 61.2436 75.1961 61.8054C75.1753 61.8956 73.4882 70.7187 79.8633 77.6274C80.2505 78.0505 80.2297 78.7095 79.808 79.0979C79.6075 79.2852 79.3585 79.3754 79.1027 79.3754Z" fill="white"/>
<path d="M172.239 79.9234C172.011 79.9234 171.776 79.8471 171.582 79.6875C171.14 79.3268 171.071 78.6679 171.437 78.2239C171.506 78.1407 178.027 70.0806 179.728 64.3164C179.887 63.7685 180.467 63.4494 181.014 63.6159C181.56 63.7754 181.878 64.358 181.712 64.906C179.894 71.0725 173.318 79.195 173.041 79.5419C172.834 79.7916 172.537 79.9234 172.239 79.9234Z" fill="white"/>
</svg>
