<svg width="61" height="51" viewBox="0 0 61 51" fill="none" xmlns="http://www.w3.org/2000/svg">
<g clip-path="url(#clip0_23_11)">
<path d="M13.1794 11.0437C13.1794 11.0437 13.1794 -0.618074 15.9332 0.0243818C18.687 0.666838 22.3315 6.33712 25.2471 6.73967C28.1627 7.14222 31.7273 5.61334 37.8431 7.38213C37.8431 7.38213 47.3597 -1.74644 48.9403 1.14868C50.521 4.0438 50.48 4.21864 50.5189 5.51982C50.5578 6.82099 50.7626 8.26652 50.8834 8.79106C51.0042 9.31559 50.9653 11.0823 50.6008 12.8532C50.2364 14.624 55.0151 16.3521 58.2542 15.9496C58.2542 15.9496 59.4295 16.2118 56.0675 18.9158C56.0675 18.9158 55.1687 19.8511 58.4528 19.6904C61.7369 19.5298 62.7504 21.4592 55.9058 24.6369L58.2133 24.9582C58.2133 24.9582 57.5253 27.0888 46.5489 32.5985C35.5724 38.1082 23.99 35.453 20.0629 34.8512C16.1359 34.2494 9.33014 28.819 6.61726 28.5771L3.37817 26.1231C3.37817 26.1231 1.59688 25.0375 6.33471 25.0375C6.33471 25.0375 9.61474 24.3137 5.20041 23.4699C0.786088 22.6262 -2.29125 17.0698 2.20293 18.8426C2.20293 18.8426 7.5898 19.0866 6.9817 17.6797C6.37361 16.2728 3.53992 15.1465 3.53992 15.1465C3.53992 15.1465 0.906888 13.4977 6.7401 13.9002C12.5733 14.3028 13.1794 11.0457 13.1794 11.0457V11.0437Z" fill="black"/>
<path d="M25.6138 17.4865C25.7305 19.2227 24.4038 20.5158 22.6532 20.4263C20.8248 20.3328 19.4284 19.1251 19.6926 17.4865C19.9526 15.8844 20.8821 14.5466 22.5181 14.5466C24.154 14.5466 25.5053 15.8661 25.6138 17.4865Z" fill="white"/>
<path d="M41.6883 17.4379C41.6802 19.1782 40.4722 20.514 38.7216 20.4245C36.8932 20.331 35.3781 18.8916 35.6442 17.2549C35.9043 15.6528 36.9812 14.8498 38.5864 14.5468C40.1917 14.2439 41.6945 15.7992 41.6883 17.4399V17.4379Z" fill="white"/>
<path d="M24.0167 17.395C24.1907 18.3892 23.4946 19.0418 22.5057 18.8954C21.6805 18.7734 20.9946 18.2225 20.9946 17.395C20.9946 16.5675 21.9958 15.6262 22.8312 15.6262C23.6666 15.6262 23.8754 16.5797 24.0187 17.395H24.0167Z" fill="black"/>
<path d="M40.1978 17.2712C40.2818 18.1983 39.6041 18.92 38.7585 18.8367C37.9682 18.7594 37.2126 18.0783 37.2126 17.2874C37.2126 16.4966 37.9661 15.665 38.7626 15.665C39.559 15.665 40.1282 16.4844 40.1978 17.2712Z" fill="black"/>
<path d="M27.354 23.35C27.354 23.35 29.0554 24.5963 29.1353 25.0395C29.2151 25.4827 29.5407 27.0909 27.5956 27.9753C25.6505 28.8596 25.9351 28.1765 25.0035 28.1765C24.0719 28.1765 23.7894 28.3371 23.8283 29.0609C23.8672 29.7847 26.0968 30.7504 28.1218 30.0266C30.1467 29.3029 30.7548 28.1765 30.7548 28.1765C30.7548 28.1765 32.2945 30.0266 32.8617 30.1059C33.4288 30.1852 36.1826 30.7098 37.6404 29.7847C39.0982 28.8596 37.5995 27.8939 36.6269 27.8146C36.6269 27.8146 35.7363 28.3778 34.1966 28.0952C32.6569 27.8126 31.6455 26.487 31.8891 25.32C32.1328 24.153 33.4288 24.275 33.6315 23.9131C33.8342 23.5513 34.645 22.1444 37.8841 22.4249C41.1232 22.7055 43.3119 23.6712 44.3643 25.7226C45.4167 27.774 45.7811 30.5878 42.3394 31.956C38.8976 33.3243 33.1053 35.2944 21.8463 33.4443C10.5873 31.5941 17.7555 19.5298 27.354 23.35Z" fill="white"/>
<path d="M17.7964 9.78126C17.7145 9.78126 17.6306 9.74873 17.5712 9.68367C15.4623 7.42288 16.0131 4.62738 16.0377 4.50947C16.0725 4.34479 16.2342 4.23703 16.4001 4.27159C16.5659 4.30616 16.6724 4.46677 16.6396 4.63145C16.6335 4.65788 16.1339 7.24397 18.0217 9.26892C18.1363 9.39294 18.1302 9.58608 18.0053 9.69994C17.9459 9.75483 17.8722 9.78126 17.7964 9.78126Z" fill="white"/>
<path d="M45.3758 9.94191C45.3082 9.94191 45.2386 9.91955 45.1813 9.87279C45.0502 9.76707 45.0297 9.57392 45.1383 9.44381C45.1587 9.41941 47.0895 7.05696 47.5932 5.36747C47.6403 5.20685 47.8122 5.11333 47.974 5.16212C48.1357 5.20889 48.2299 5.37966 48.1808 5.54028C47.6423 7.34769 45.6952 9.72844 45.6133 9.83009C45.5519 9.90328 45.4638 9.94191 45.3758 9.94191Z" fill="white"/>
<path d="M17.858 40.7613C17.858 42.2048 16.3142 43.4022 14.5902 43.4022C12.8662 43.4022 11.7422 42.7964 11.7422 41.3529C11.7422 39.9094 13.1386 38.7119 14.8605 38.7119C16.5824 38.7119 17.858 39.3198 17.858 40.7633V40.7613Z" stroke="black" stroke-miterlimit="10"/>
<path d="M14.1931 39.7673C14.1071 39.7673 13.9781 39.7733 13.804 39.7876C13.6362 39.8018 13.501 39.8079 13.4027 39.8079L13.1755 39.8018C13.1284 39.8018 13.0567 39.8181 12.9892 39.8913C12.9359 39.9482 12.9093 40.0092 12.9093 40.0742C12.9093 40.1312 12.9359 40.2328 13.112 40.2816C13.112 40.3081 13.1038 40.3589 13.0854 40.4565C13.0629 40.5744 13.0363 40.7716 13.0014 41.0562C12.9666 41.3409 12.9482 41.5421 12.9421 41.6682C12.9339 41.8186 12.9257 41.8857 12.9195 41.9162C12.9114 41.9569 12.8991 41.9975 12.8806 42.0362C12.8458 42.1094 12.8376 42.1378 12.8376 42.1622C12.8376 42.211 12.8581 42.2618 12.9052 42.3249C12.9687 42.4123 13.0444 42.4306 13.0956 42.4306C13.1755 42.4306 13.2656 42.396 13.372 42.3228C13.4109 42.2964 13.501 42.2537 13.716 42.2029C14.2033 42.087 14.5862 41.9 14.8544 41.6438C15.1288 41.3815 15.268 41.0847 15.268 40.7635C15.268 40.4666 15.1677 40.2227 14.967 40.0376C14.7704 39.8567 14.5084 39.7632 14.189 39.7632L14.1931 39.7673ZM14.793 40.7513C14.793 40.9627 14.7131 41.1457 14.5514 41.3124C14.3835 41.4852 14.1624 41.6133 13.89 41.6966C13.6095 41.7841 13.4805 41.8125 13.4191 41.8207C13.4191 41.8044 13.4171 41.7841 13.4171 41.7597C13.4171 41.4649 13.4765 40.9586 13.5932 40.2511C13.6116 40.2491 13.63 40.2471 13.6484 40.243C13.8389 40.2186 14.0027 40.2064 14.1357 40.2064C14.3384 40.2064 14.5002 40.2572 14.621 40.3589C14.7377 40.4565 14.793 40.5846 14.793 40.7513Z" fill="black"/>
<path d="M17.0697 40.5093C16.953 40.3995 16.7789 40.3649 16.5946 40.43C16.5353 40.4503 16.4738 40.4869 16.4042 40.5377C16.3367 40.5865 16.265 40.6557 16.1872 40.7492C16.1114 40.8386 16.0418 40.9322 15.9784 41.0297C15.9784 41.0318 15.9743 41.0338 15.9743 41.0379C15.9763 41.0216 15.9784 41.0074 15.9804 40.9932C15.9804 40.9789 15.9906 40.9383 16.0214 40.8346C16.0459 40.7492 16.0562 40.6821 16.0562 40.6313C16.0562 40.5804 16.0377 40.5296 16.005 40.4869C15.9784 40.4524 15.9251 40.4117 15.835 40.4117C15.7716 40.4117 15.7122 40.4341 15.659 40.4747C15.6098 40.5154 15.575 40.5601 15.5566 40.6089C15.5423 40.6496 15.532 40.7106 15.5238 40.802C15.5156 40.8732 15.5115 40.9179 15.5095 40.9383C15.489 41.0643 15.4767 41.231 15.4706 41.4343C15.4644 41.6051 15.4624 41.7169 15.4624 41.7657C15.4624 41.9609 15.4747 42.0992 15.5013 42.1866C15.5504 42.3513 15.6549 42.3757 15.7122 42.3757C15.792 42.3757 15.8576 42.3533 15.9067 42.3106C15.9558 42.2659 15.9866 42.1947 16.0009 42.0849C16.0418 41.782 16.1544 41.5014 16.3408 41.2493C16.5926 40.9078 16.6991 40.8915 16.7195 40.8915C16.7359 40.8915 16.7544 40.9078 16.7646 40.9179C16.8362 40.9932 16.912 41.0094 16.9611 41.0094C17.0553 41.0094 17.1086 40.9667 17.1372 40.9301C17.172 40.8854 17.1905 40.8346 17.1905 40.7776C17.1905 40.676 17.1495 40.5845 17.0717 40.5093H17.0697Z" fill="black"/>
<path d="M22.6837 38.8503H25.0731C25.843 38.8503 26.2279 39.6554 26.1255 40.4992C26.1255 40.4992 25.9228 40.7614 25.5584 40.4992C25.1939 40.2369 22.176 40.3874 21.9344 41.0156C21.6928 41.6438 21.0847 41.0217 20.9024 44.4596H23.2509C24.1211 44.4596 24.3238 44.1384 24.7087 43.9575C25.0936 43.7765 26.2873 44.1587 24.8704 45.586C23.4536 47.0132 20.6588 45.8482 20.6588 45.8482C20.6588 45.8482 20.3353 50.6544 18.9983 50.8761C17.6613 51.0977 17.1965 50.2722 17.5405 49.6887C17.8845 49.1052 18.7751 48.4425 19.2215 43.0324C19.2215 43.0324 19.1007 39.6737 22.6837 38.8503Z" fill="black"/>
<path d="M29.9133 42.4713C26.2484 42.5913 25.7815 45.9093 25.7815 45.9093C25.499 50.1523 28.1914 51.7808 30.0341 50.6545C31.0517 50.0324 31.2667 49.5953 31.2544 49.3289C31.2462 49.1398 31.0497 49.0179 30.8654 49.0626C28.345 49.6725 27.7901 48.5523 27.6734 47.9241C27.6365 47.7268 27.786 47.5459 27.9887 47.55C31.3936 47.6272 32.3498 46.5212 32.5259 46.1715C32.7081 45.8096 33.5783 42.3514 29.9133 42.4713ZM27.7655 45.6063C27.7655 45.6063 29.4056 43.1341 30.6811 44.3194C31.9567 45.5047 27.9273 47.2145 27.7655 45.6063Z" fill="black"/>
<path d="M35.7446 39.5354C35.7446 39.5354 37.1615 39.2345 37.2638 39.4358C37.3662 39.6371 34.2868 48.4851 34.9563 49.4488C34.9563 49.4488 35.0567 49.7903 35.6648 49.589C36.2729 49.3878 34.9973 50.9288 34.7741 50.9126C34.5509 50.8963 32.4257 50.9553 32.87 49.1662C33.3143 47.377 34.0247 40.7817 35.7446 39.5354Z" fill="black"/>
<path d="M42.1512 42.028C42.2371 42.7376 41.6291 43.3089 41.0906 43.3678C40.3699 43.4471 40.0689 42.8697 40.1508 42.2476C40.2184 41.7353 40.5726 41.4771 41.0926 41.4771C41.6127 41.4771 42.0897 41.5136 42.1532 42.026L42.1512 42.028Z" fill="black"/>
<path d="M39.6123 44.8824C39.6123 44.8824 41.0168 43.8719 41.7191 44.5164C41.7191 44.5164 40.9882 48.0316 40.8018 48.4037C40.7281 48.5501 40.6688 49.0624 40.9165 49.282C41.328 49.6479 42.2064 49.5158 42.4767 47.8405C42.4767 47.8405 43.6908 47.3302 43.5024 48.6985C43.3141 50.0668 41.801 51.8884 39.6143 50.3331C39.6143 50.3331 36.2933 52.3174 36.1582 48.8855C36.1582 48.8855 36.8646 48.1353 37.2679 48.4566C37.2679 48.4566 37.7245 50.3331 38.7769 48.6436C39.8293 46.9541 39.6143 44.8824 39.6143 44.8824H39.6123Z" fill="black"/>
<path d="M44.2826 45.7811C44.2826 45.7811 44.2621 43.1076 48.009 43.4898C48.009 43.4898 49.5282 43.6931 49.4667 45.1386C49.4258 46.1369 48.6887 46.1877 48.2362 46.1247C48.0356 46.0962 47.8841 45.9336 47.8738 45.7343L47.8615 45.47C47.8513 45.2606 47.7039 45.0858 47.4991 45.0349C46.9299 44.8987 45.9042 44.8255 46.3689 46.265C46.3689 46.265 48.0909 47.6129 48.312 47.8752C48.5331 48.1374 48.7379 49.8452 47.3804 50.5487C46.1519 51.1871 43.9755 50.9167 43.9386 49.5728C43.9325 49.3491 44.1515 49.1865 44.3645 49.2597C44.9275 49.4508 45.9963 49.7151 46.4856 49.1621C46.6556 48.969 46.6187 48.6701 46.4078 48.5217C45.7895 48.0886 44.4095 46.9969 44.2826 45.7811Z" fill="black"/>
</g>
<defs>
<clipPath id="clip0_23_11">
<rect width="61" height="51" fill="white"/>
</clipPath>
</defs>
</svg>
